<svg width="162" height="164" viewBox="0 0 162 164" fill="none" xmlns="http://www.w3.org/2000/svg">
<path d="M137.363 84.9141C168.933 102.803 169.101 131.803 137.73 149.689C106.359 167.575 55.3557 167.56 23.7857 149.689C-7.78433 131.818 -7.94933 102.803 23.4187 84.9181C54.7867 67.0331 105.797 67.0281 137.363 84.9141Z" fill="#F0F0F0"/>
<path d="M106.857 4.14894L108.474 3.21094L108.374 36.6169L106.761 37.5589L106.857 4.14894Z" fill="#F0F0F0"/>
<path d="M106.765 37.5602L108.378 36.6182L154.985 63.5252L153.368 64.4632L106.765 37.5602Z" fill="#F5F5F5"/>
<path d="M105.005 0.941895L155.325 29.9929L155.219 67.6739L104.899 38.6189L105.005 0.941895ZM153.368 64.4619L153.468 31.0559L106.857 4.14989L106.765 37.5559L153.368 64.4619Z" fill="#E0E0E0"/>
<path d="M105.005 0.942001L106.622 0L156.942 29.055L155.325 29.993L105.005 0.942001Z" fill="#F5F5F5"/>
<path d="M155.325 29.9932L156.942 29.0552L156.836 66.7362L155.219 67.6742L155.325 29.9932Z" fill="#F0F0F0"/>
<path d="M129.229 17.0679L129.129 50.4739L130.988 51.5479L131.088 18.1379L129.229 17.0679Z" fill="#E0E0E0"/>
<path d="M131.087 18.1382L130.987 51.5482L132.604 50.6102L132.696 19.0692L131.087 18.1382Z" fill="#F0F0F0"/>
<path opacity="0.2" d="M131.087 19.6408V18.1408L129.228 17.0708L129.221 18.5708L131.083 19.6448L131.087 19.6408Z" fill="black"/>
<path opacity="0.2" d="M131.084 19.6412L132.384 18.8902L131.084 18.1392V19.6412Z" fill="black"/>
<path d="M28.6485 105.975C28.421 106.051 28.2231 106.197 28.0829 106.391C27.9426 106.586 27.8672 106.82 27.8672 107.06C27.8672 107.3 27.9426 107.534 28.0829 107.728C28.2231 107.923 28.421 108.069 28.6485 108.145L32.3615 110.304C32.9424 110.599 33.5848 110.753 34.2365 110.753C34.8882 110.753 35.5307 110.599 36.1115 110.304L80.8815 84.2948C81.1096 84.2186 81.3079 84.0727 81.4484 83.8776C81.589 83.6825 81.6646 83.4482 81.6646 83.2077C81.6646 82.9673 81.589 82.733 81.4484 82.5379C81.3079 82.3428 81.1096 82.1969 80.8815 82.1207L77.1646 79.9617C76.5837 79.6662 75.9412 79.5122 75.2896 79.5122C74.6379 79.5122 73.9954 79.6662 73.4146 79.9617L28.6485 105.975Z" fill="#E0E0E0"/>
<path d="M34.9327 132.735L68.0237 151.962C68.4852 152.23 69.0095 152.371 69.5432 152.371C70.077 152.371 70.6013 152.23 71.0627 151.962L131.163 117.276C131.277 117.209 131.373 117.113 131.439 116.998C131.505 116.883 131.54 116.752 131.54 116.62C131.54 116.487 131.505 116.356 131.439 116.241C131.373 116.126 131.277 116.03 131.163 115.964L98.5367 97.0046C98.0771 96.7405 97.5563 96.6016 97.0262 96.6016C96.4962 96.6016 95.9754 96.7405 95.5157 97.0046L34.9387 131.427C34.8243 131.493 34.7292 131.588 34.6629 131.703C34.5965 131.817 34.5613 131.947 34.5606 132.079C34.5599 132.211 34.5937 132.342 34.6588 132.457C34.7239 132.572 34.818 132.668 34.9317 132.736L34.9327 132.735Z" fill="#E0E0E0"/>
<path d="M20.7676 18.1529L20.7936 26.2209L21.7686 26.7889L21.7426 17.5889L20.7676 18.1529Z" fill="#F0F0F0"/>
<path d="M10.2354 32.3177V33.4467L21.7644 26.7897L20.7894 26.2217L10.2354 32.3177Z" fill="#F5F5F5"/>
<path d="M22.9194 15.5537L9.02637 23.5747L9.05937 35.4887L22.9594 27.4677L22.9194 15.5537ZM10.2364 33.4467V32.3137L10.2064 24.2527L20.7644 18.1527L21.7394 17.5917L21.7654 26.7917L10.2364 33.4467Z" fill="#E0E0E0"/>
<path d="M22.9194 15.5538L21.9444 14.9858L8.04443 23.0068L9.02343 23.5748L22.9194 15.5538Z" fill="#F5F5F5"/>
<path d="M8.04736 23.0068L8.08036 34.9208L9.05936 35.4888L9.02636 23.5748L8.04736 23.0068Z" fill="#F0F0F0"/>
<path d="M20.7676 34.9688L20.7936 43.0368L21.7686 43.6048L21.7426 34.4048L20.7676 34.9688Z" fill="#F0F0F0"/>
<path d="M10.2354 49.1326V50.2616L21.7644 43.6046L20.7894 43.0366L10.2354 49.1326Z" fill="#F5F5F5"/>
<path d="M22.9194 32.3657L9.02637 40.3897L9.05937 52.3037L22.9594 44.2797L22.9194 32.3657ZM10.2364 50.2547V49.1217L10.2064 41.0577L20.7684 34.9657L21.7434 34.4007L21.7694 43.6007L10.2364 50.2547Z" fill="#E0E0E0"/>
<path d="M22.9194 32.3649L21.9444 31.7969L8.04443 39.8209L9.02343 40.3889L22.9194 32.3649Z" fill="#F5F5F5"/>
<path d="M8.04736 39.8218L8.08036 51.7318L9.05936 52.3038L9.02636 40.3898L8.04736 39.8218Z" fill="#F0F0F0"/>
<path d="M17.4133 21.2178L20.2943 23.4828V25.6968L10.7233 31.2278L10.7163 29.0138L12.5423 25.3918L14.1813 26.6638L13.6023 28.4638L14.4453 26.8638L17.4133 21.2178Z" fill="#E0E0E0"/>
<path d="M14.2686 22.3329C14.7196 22.0729 15.0856 22.2819 15.0896 22.8019C15.0767 23.0871 14.9962 23.3652 14.8547 23.6131C14.7131 23.8611 14.5146 24.0718 14.2756 24.2279C13.8246 24.4879 13.4586 24.2789 13.4546 23.7619C13.4668 23.476 13.5471 23.1972 13.6886 22.9485C13.8302 22.6998 14.029 22.4894 14.2686 22.3329Z" fill="#E0E0E0"/>
<path d="M17.4134 38.0327L20.2944 40.2977V42.5117L10.7194 48.0397L10.7124 45.8257L12.5384 42.2007L14.1774 43.4727L13.5984 45.2727L14.4414 43.6727L17.4134 38.0327Z" fill="#E0E0E0"/>
<path d="M14.2686 39.1479C14.7196 38.8879 15.0856 39.0969 15.0896 39.6139C15.0744 39.8966 14.9928 40.1716 14.8513 40.4168C14.7099 40.6619 14.5126 40.8703 14.2756 41.0249C13.8246 41.2849 13.4586 41.0759 13.4546 40.5559C13.4702 40.2738 13.5521 39.9994 13.6935 39.7548C13.8349 39.5102 14.0319 39.3023 14.2686 39.1479Z" fill="#E0E0E0"/>
<path d="M134.503 88.511V89.761L113.919 77.876V76.626L134.503 88.511Z" fill="#D27644"/>
<path d="M127.173 86.2668V87.5168L113.913 79.8628V78.6128L127.173 86.2668Z" fill="#D27644"/>
<path d="M121.16 68.9239C121.375 69.0487 121.565 69.2129 121.721 69.4079C122.288 70.2127 122.602 71.1692 122.621 72.1539C122.746 73.4189 122.874 74.6829 122.988 75.9479C123.034 76.6125 123.158 77.2694 123.355 77.9059C123.566 78.5959 123.966 79.2131 124.51 79.6879C124.573 79.737 124.64 79.7811 124.71 79.8199C124.899 79.9464 125.121 80.0139 125.349 80.0139C125.577 80.0139 125.799 79.9464 125.989 79.8199C126.352 79.4907 126.639 79.0868 126.832 78.6359C127.07 78.1065 127.462 77.661 127.957 77.3569C128.209 77.2473 128.485 77.202 128.76 77.225C129.034 77.2481 129.299 77.3387 129.53 77.4889C129.627 77.5462 129.72 77.61 129.809 77.6799C130.866 78.7354 131.625 80.052 132.009 81.4959C132.509 82.8889 133.153 84.5059 134.227 85.2859C134.297 85.3386 134.371 85.3877 134.447 85.4329C134.771 85.6293 135.15 85.7184 135.528 85.6875C135.907 85.6566 136.266 85.5074 136.555 85.2609C137.145 84.8099 137.622 84.1609 138.355 83.9609C138.745 83.8846 139.151 83.9413 139.506 84.1219V90.2069L113.935 75.4529L113.964 65.3389C114.442 66.1682 114.78 67.0711 114.964 68.0109C115.184 69.2279 115.133 70.5509 115.954 71.6249C116.153 71.886 116.402 72.1051 116.687 72.2699C116.995 72.4648 117.364 72.5379 117.724 72.4749C117.976 72.3783 118.202 72.2223 118.382 72.0201C118.562 71.8178 118.691 71.5753 118.758 71.3129C118.939 70.543 119.228 69.8025 119.616 69.1129C119.807 68.9002 120.068 68.764 120.352 68.7292C120.636 68.6945 120.923 68.7636 121.16 68.9239Z" fill="#D27644"/>
<path opacity="0.4" d="M121.16 68.9239C121.375 69.0487 121.565 69.2129 121.721 69.4079C122.288 70.2127 122.602 71.1692 122.621 72.1539C122.746 73.4189 122.874 74.6829 122.988 75.9479C123.034 76.6125 123.158 77.2694 123.355 77.9059C123.566 78.5959 123.966 79.2131 124.51 79.6879C124.573 79.737 124.64 79.7811 124.71 79.8199C124.899 79.9464 125.121 80.0139 125.349 80.0139C125.577 80.0139 125.799 79.9464 125.989 79.8199C126.352 79.4907 126.639 79.0868 126.832 78.6359C127.07 78.1065 127.462 77.661 127.957 77.3569C128.209 77.2473 128.485 77.202 128.76 77.225C129.034 77.2481 129.299 77.3387 129.53 77.4889C129.627 77.5462 129.72 77.61 129.809 77.6799C130.866 78.7354 131.625 80.052 132.009 81.4959C132.509 82.8889 133.153 84.5059 134.227 85.2859C134.297 85.3386 134.371 85.3877 134.447 85.4329C134.771 85.6293 135.15 85.7184 135.528 85.6875C135.907 85.6566 136.266 85.5074 136.555 85.2609C137.145 84.8099 137.622 84.1609 138.355 83.9609C138.745 83.8846 139.151 83.9413 139.506 84.1219V90.2069L113.935 75.4529L113.964 65.3389C114.442 66.1682 114.78 67.0711 114.964 68.0109C115.184 69.2279 115.133 70.5509 115.954 71.6249C116.153 71.886 116.402 72.1051 116.687 72.2699C116.995 72.4648 117.364 72.5379 117.724 72.4749C117.976 72.3783 118.202 72.2223 118.382 72.0201C118.562 71.8178 118.691 71.5753 118.758 71.3129C118.939 70.543 119.228 69.8025 119.616 69.1129C119.807 68.9002 120.068 68.764 120.352 68.7292C120.636 68.6945 120.923 68.7636 121.16 68.9239Z" fill="white"/>
<path d="M143.555 36.9727L114.723 20.3267C114.614 20.2509 114.489 20.2023 114.357 20.1849C114.226 20.1675 114.092 20.1819 113.968 20.2267H113.946L113.902 20.2527L112.736 20.9237H112.692C112.587 21.0081 112.506 21.1168 112.453 21.2403C112.401 21.3638 112.38 21.4982 112.392 21.6317L112.37 29.4027C112.39 29.7951 112.502 30.1772 112.699 30.5175C112.895 30.8579 113.169 31.1469 113.499 31.3607L142.331 48.0507C142.446 48.1349 142.583 48.1864 142.725 48.1999C142.868 48.2134 143.011 48.1885 143.141 48.1277L144.329 47.4417C144.44 47.3571 144.528 47.2453 144.584 47.1169C144.64 46.9886 144.662 46.848 144.648 46.7087L144.67 38.9377C144.651 38.5457 144.54 38.1635 144.347 37.8221C144.153 37.4807 143.882 37.1897 143.555 36.9727Z" fill="#D27644"/>
<path opacity="0.3" d="M143.554 36.9729L114.723 20.3269C114.614 20.251 114.489 20.2023 114.358 20.1849C114.226 20.1675 114.092 20.1819 113.968 20.2269H113.946L113.902 20.2529L112.736 20.9239C112.863 20.8689 113.003 20.8478 113.141 20.8625C113.279 20.8772 113.411 20.9273 113.524 21.0079L142.356 37.6589C142.824 37.9635 143.176 38.4168 143.356 38.9459L144.556 38.2609C144.377 37.7315 144.025 37.2781 143.556 36.9739L143.554 36.9729Z" fill="white"/>
<path opacity="0.2" d="M143.357 38.9548C143.439 39.1692 143.482 39.3964 143.485 39.6259L143.463 47.4008C143.478 47.5409 143.455 47.6825 143.398 47.8112C143.341 47.9399 143.251 48.0512 143.137 48.1339L144.325 47.4478C144.436 47.3632 144.524 47.2513 144.58 47.123C144.636 46.9946 144.658 46.8541 144.644 46.7148L144.666 38.9438C144.662 38.7158 144.618 38.4902 144.538 38.2769L143.357 38.9548Z" fill="black"/>
<path d="M120.444 28.043C121.071 29.143 121.122 30.297 120.602 30.796L118.542 29.608L118.399 28.362C118.394 28.3261 118.382 28.2916 118.363 28.2607C118.344 28.2298 118.319 28.203 118.289 28.182C118.28 28.1743 118.268 28.1694 118.255 28.1677C118.243 28.1661 118.23 28.1678 118.218 28.1727C118.207 28.1776 118.197 28.1854 118.189 28.1955C118.182 28.2056 118.177 28.2175 118.175 28.23L117.875 30.063L117.49 27.131C117.484 27.0955 117.471 27.0616 117.451 27.0314C117.432 27.0011 117.406 26.9751 117.376 26.955C117.367 26.9466 117.355 26.941 117.343 26.939C117.33 26.937 117.318 26.9386 117.306 26.9437C117.294 26.9487 117.285 26.957 117.278 26.9675C117.271 26.978 117.267 26.9903 117.266 27.003L116.984 29.016L116.702 27.506C116.688 27.4389 116.649 27.3799 116.592 27.341C116.583 27.3346 116.573 27.3304 116.562 27.3286C116.551 27.3268 116.54 27.3276 116.529 27.3307C116.519 27.3339 116.509 27.3395 116.501 27.3469C116.493 27.3544 116.487 27.3637 116.482 27.374L116.225 28.265L114.542 27.294C114.025 26.194 114.084 25.094 114.718 24.728C114.921 24.6369 115.143 24.6007 115.364 24.6232C115.585 24.6457 115.796 24.726 115.975 24.856C116.498 25.1818 116.929 25.6363 117.225 26.176L117.591 26.792L117.958 26.587C118.16 26.4968 118.383 26.4612 118.603 26.4837C118.823 26.5061 119.033 26.5859 119.212 26.715C119.731 27.0462 120.156 27.5044 120.447 28.046L120.444 28.043ZM118.278 29.143L117.985 30.943C117.985 30.998 117.93 31.016 117.875 30.983C117.845 30.9645 117.819 30.9395 117.799 30.9097C117.779 30.88 117.767 30.8463 117.761 30.811L117.394 27.922L117.134 29.784C117.134 29.843 117.079 29.861 117.02 29.835C116.991 29.816 116.967 29.7912 116.948 29.7621C116.929 29.733 116.916 29.7003 116.91 29.666L116.591 27.966L116.433 28.527C116.433 28.575 116.374 28.589 116.323 28.56L114.754 27.655L115.077 28.216L117.577 32.545L120.092 31.108L120.415 30.925L118.461 29.796C118.431 29.7765 118.405 29.7507 118.385 29.7203C118.366 29.69 118.353 29.6558 118.347 29.62L118.278 29.143Z" fill="#D27644"/>
<path d="M117.374 26.958C117.404 26.9781 117.43 27.0041 117.449 27.0343C117.469 27.0646 117.482 27.0985 117.488 27.134L117.877 30.067L118.177 28.234C118.177 28.175 118.232 28.153 118.291 28.186C118.321 28.207 118.346 28.2338 118.365 28.2647C118.384 28.2956 118.396 28.3301 118.401 28.366L118.544 29.612L120.604 30.8L121.773 31.475C121.807 31.4969 121.835 31.5265 121.854 31.5613C121.874 31.596 121.886 31.635 121.887 31.675C121.887 31.745 121.836 31.775 121.77 31.737L120.403 30.949L118.449 29.82C118.419 29.8005 118.393 29.7747 118.373 29.7444C118.354 29.714 118.341 29.6798 118.335 29.644L118.28 29.16L117.987 30.96C117.987 31.015 117.932 31.033 117.877 31C117.847 30.9815 117.821 30.9565 117.801 30.9267C117.781 30.897 117.769 30.8633 117.763 30.828L117.396 27.939L117.136 29.801C117.136 29.8132 117.132 29.825 117.126 29.8352C117.119 29.8455 117.11 29.8537 117.099 29.859C117.088 29.8643 117.076 29.8664 117.064 29.8652C117.052 29.8639 117.04 29.8594 117.03 29.852C116.999 29.8345 116.973 29.8102 116.952 29.781C116.932 29.7517 116.919 29.7182 116.913 29.683L116.594 27.983L116.436 28.544C116.436 28.592 116.377 28.606 116.326 28.577L114.757 27.672L113.39 26.88C113.357 26.8596 113.33 26.8316 113.31 26.7984C113.29 26.7651 113.279 26.7276 113.276 26.689C113.276 26.616 113.327 26.589 113.39 26.619L114.556 27.294L116.239 28.265L116.496 27.374C116.496 27.326 116.551 27.312 116.596 27.337C116.626 27.356 116.652 27.3808 116.672 27.4098C116.692 27.4388 116.706 27.4715 116.713 27.506L116.995 29.016L117.277 27.003C117.278 26.9918 117.282 26.981 117.288 26.9717C117.295 26.9623 117.303 26.9547 117.313 26.9496C117.323 26.9445 117.334 26.942 117.346 26.9425C117.357 26.9429 117.368 26.9462 117.377 26.952L117.374 26.958Z" fill="white"/>
<path opacity="0.4" d="M120.444 28.043C121.071 29.143 121.122 30.297 120.602 30.796L118.542 29.608L118.399 28.362C118.394 28.3261 118.382 28.2916 118.363 28.2607C118.344 28.2298 118.319 28.203 118.289 28.182C118.28 28.1743 118.268 28.1694 118.255 28.1677C118.243 28.1661 118.23 28.1678 118.218 28.1727C118.207 28.1776 118.197 28.1854 118.189 28.1955C118.182 28.2056 118.177 28.2175 118.175 28.23L117.875 30.063L117.49 27.131C117.484 27.0955 117.471 27.0616 117.451 27.0314C117.432 27.0011 117.406 26.9751 117.376 26.955C117.367 26.9466 117.355 26.941 117.343 26.939C117.33 26.937 117.318 26.9386 117.306 26.9437C117.294 26.9487 117.285 26.957 117.278 26.9675C117.271 26.978 117.267 26.9903 117.266 27.003L116.984 29.016L116.702 27.506C116.688 27.4389 116.649 27.3799 116.592 27.341C116.583 27.3346 116.573 27.3304 116.562 27.3286C116.551 27.3268 116.54 27.3276 116.529 27.3307C116.519 27.3339 116.509 27.3395 116.501 27.3469C116.493 27.3544 116.487 27.3637 116.482 27.374L116.225 28.265L114.542 27.294C114.025 26.194 114.084 25.094 114.718 24.728C114.921 24.6369 115.143 24.6007 115.364 24.6232C115.585 24.6457 115.796 24.726 115.975 24.856C116.498 25.1818 116.929 25.6363 117.225 26.176L117.591 26.792L117.958 26.587C118.16 26.4968 118.383 26.4612 118.603 26.4837C118.823 26.5061 119.033 26.5859 119.212 26.715C119.731 27.0462 120.156 27.5044 120.447 28.046L120.444 28.043ZM118.278 29.143L117.985 30.943C117.985 30.998 117.93 31.016 117.875 30.983C117.845 30.9645 117.819 30.9395 117.799 30.9097C117.779 30.88 117.767 30.8463 117.761 30.811L117.394 27.922L117.134 29.784C117.134 29.843 117.079 29.861 117.02 29.835C116.991 29.816 116.967 29.7912 116.948 29.7621C116.929 29.733 116.916 29.7003 116.91 29.666L116.591 27.966L116.433 28.527C116.433 28.575 116.374 28.589 116.323 28.56L114.754 27.655L115.077 28.216L117.577 32.545L120.092 31.108L120.415 30.925L118.461 29.796C118.431 29.7765 118.405 29.7507 118.385 29.7203C118.366 29.69 118.353 29.6558 118.347 29.62L118.278 29.143Z" fill="white"/>
<path d="M137.615 42.399V43.682L122.67 35.053V33.77L137.615 42.399Z" fill="white"/>
<path d="M140.494 41.5409V42.8279L122.674 32.5419V31.2549L140.494 41.5409Z" fill="white"/>
<path d="M128.808 32.2738V33.5567L122.686 30.0228V28.7397L128.808 32.2738Z" fill="white"/>
<path d="M143.555 52.128L114.724 35.482C114.615 35.4062 114.49 35.3576 114.358 35.3402C114.227 35.3228 114.093 35.3371 113.969 35.382H113.946L113.902 35.408L112.736 36.079H112.692C112.587 36.1634 112.506 36.2721 112.453 36.3956C112.401 36.519 112.38 36.6535 112.392 36.787L112.37 44.558C112.39 44.9504 112.502 45.3324 112.699 45.6728C112.895 46.0132 113.169 46.3021 113.499 46.516L142.331 63.162C142.446 63.2461 142.583 63.2976 142.725 63.3112C142.868 63.3247 143.011 63.2998 143.141 63.239L144.329 62.554C144.441 62.4701 144.529 62.3584 144.585 62.2298C144.641 62.1013 144.663 61.9604 144.648 61.821L144.67 54.046C144.644 53.6621 144.53 53.2892 144.337 52.9566C144.143 52.6239 143.876 52.3403 143.555 52.128Z" fill="#D27644"/>
<path opacity="0.3" d="M143.553 52.1276L114.721 35.4816C114.613 35.4058 114.487 35.3571 114.356 35.3397C114.225 35.3223 114.091 35.3367 113.966 35.3816H113.944L113.9 35.4076L112.734 36.0786C112.862 36.0237 113.001 36.0025 113.139 36.0173C113.277 36.032 113.409 36.082 113.522 36.1626L142.354 52.8166C142.823 53.1213 143.175 53.5746 143.354 54.1036L144.554 53.4176C144.376 52.8871 144.023 52.4324 143.553 52.1276Z" fill="white"/>
<path opacity="0.2" d="M143.357 54.1067C143.439 54.321 143.482 54.5482 143.485 54.7777L143.463 62.5527C143.478 62.6928 143.455 62.8343 143.398 62.9631C143.341 63.0918 143.251 63.2031 143.137 63.2857L144.325 62.5997C144.437 62.5158 144.526 62.4041 144.581 62.2756C144.637 62.147 144.659 62.0061 144.644 61.8667L144.666 54.0917C144.661 53.8647 144.618 53.6401 144.538 53.4277L143.357 54.1067Z" fill="black"/>
<path d="M139.118 58.3888V59.6718L130.958 54.9608V53.6738L139.118 58.3888Z" fill="white"/>
<path d="M140.148 56.461V57.748L130.962 52.448V51.165L140.148 56.461Z" fill="white"/>
<path d="M135.053 51.002V52.285L130.969 49.928V48.645L135.053 51.002Z" fill="white"/>
<path d="M118.377 43.5789C118.51 43.6646 118.62 43.7802 118.699 43.9164C118.778 44.0527 118.824 44.2057 118.832 44.363V45.2319C118.832 45.5179 118.623 45.632 118.374 45.492L117.619 45.0559C117.488 44.9694 117.379 44.8535 117.301 44.7174C117.223 44.5813 117.177 44.4287 117.168 44.272V43.4029C117.168 43.1129 117.373 43.003 117.623 43.143L118.377 43.5789Z" fill="white"/>
<path opacity="0.4" d="M118.011 40.258L118.121 40.328V41.373C118.084 41.3465 118.046 41.3222 118.007 41.3C116.559 40.464 115.379 41.135 115.371 42.8C115.39 43.5429 115.573 44.2725 115.906 44.937L115.129 45.037C114.714 44.1746 114.488 43.2337 114.465 42.277C114.47 40.038 116.061 39.133 118.011 40.258Z" fill="white"/>
<path d="M118.12 40.3276C119.116 41.0014 119.942 41.8964 120.534 42.9425C121.126 43.9885 121.468 45.1574 121.533 46.3576C121.526 48.5576 119.933 49.5026 117.988 48.3776C116.725 47.5728 115.73 46.4101 115.129 45.0376L115.906 44.9376C116.355 45.9216 117.078 46.7551 117.988 47.3376C119.454 48.1736 120.62 47.4986 120.624 45.8376C120.576 44.9524 120.326 44.0901 119.893 43.3167C119.459 42.5434 118.854 41.8797 118.124 41.3766L118.12 40.3276Z" fill="white"/>
<path opacity="0.4" d="M125.871 44.7958L125.985 44.8658V45.9108C125.948 45.8844 125.91 45.86 125.871 45.8378C124.423 45.0018 123.243 45.6728 123.239 47.3378C123.257 48.0805 123.438 48.8101 123.77 49.4748L122.997 49.5748C122.579 48.7132 122.352 47.772 122.33 46.8148C122.33 44.5758 123.925 43.6558 125.871 44.7958Z" fill="white"/>
<path d="M126.241 48.118C126.372 48.2041 126.482 48.3199 126.56 48.4561C126.638 48.5923 126.683 48.7451 126.692 48.902V49.767C126.692 50.057 126.492 50.174 126.238 50.031L125.483 49.595C125.351 49.509 125.242 49.3931 125.164 49.2569C125.085 49.1207 125.04 48.968 125.032 48.811V47.942C125.032 47.652 125.237 47.542 125.49 47.682L126.241 48.118Z" fill="white"/>
<path d="M125.983 44.8657C126.977 45.5404 127.802 46.4356 128.393 47.4815C128.985 48.5275 129.326 49.696 129.392 50.8957C129.385 53.0957 127.797 54.0407 125.847 52.9157C124.583 52.1116 123.589 50.9486 122.991 49.5757L123.764 49.4757C124.213 50.46 124.938 51.2934 125.85 51.8757C127.298 52.7117 128.478 52.0367 128.486 50.3757C128.437 49.4899 128.185 48.6272 127.751 47.8538C127.316 47.0804 126.71 46.417 125.979 45.9147L125.983 44.8657Z" fill="white"/>
<path d="M115.928 52.558C116.114 52.6777 116.268 52.84 116.378 53.0314C116.487 53.2227 116.55 53.4376 116.56 53.658V54.864C116.56 55.264 116.278 55.425 115.926 55.231L114.878 54.631C114.694 54.5098 114.541 54.3471 114.433 54.156C114.324 53.9649 114.261 53.7507 114.25 53.531V52.325C114.25 51.925 114.536 51.764 114.88 51.958L115.928 52.558Z" fill="#D27644"/>
<path d="M115.922 55.9551C116.107 56.075 116.26 56.2374 116.369 56.4288C116.478 56.6202 116.54 56.835 116.549 57.0551V58.2611C116.549 58.6611 116.267 58.8221 115.918 58.6281L114.87 58.0281C114.685 57.9082 114.531 57.7458 114.422 57.5544C114.313 57.363 114.252 57.1482 114.243 56.9281V55.7181C114.243 55.3181 114.525 55.1571 114.873 55.3511L115.922 55.9551Z" fill="#D27644"/>
<path d="M115.91 59.3528C116.096 59.4727 116.249 59.635 116.359 59.8264C116.469 60.0177 116.531 60.2324 116.541 60.4528V61.6588C116.541 62.0588 116.255 62.2198 115.907 62.0258L114.859 61.4258C114.675 61.3056 114.522 61.1431 114.413 60.9518C114.303 60.7604 114.242 60.5458 114.232 60.3258V59.1158C114.232 58.7158 114.514 58.5588 114.863 58.7488L115.91 59.3528Z" fill="#D27644"/>
<path d="M133.554 70.2659V71.4659L117.623 62.2659V61.0659L133.554 70.2659Z" fill="#D27644"/>
<path d="M139.906 70.5309V71.7309L117.629 58.8709V57.6709L139.906 70.5309Z" fill="#D27644"/>
<path d="M136.967 65.4348V66.6348L117.637 55.4778V54.2778L136.967 65.4348Z" fill="#D27644"/>
<path d="M78.4855 12.3198C78.4855 9.22976 77.3855 7.05976 75.6225 6.03676L71.6675 3.70176L71.6125 3.67276C71.4544 3.58117 71.2904 3.50032 71.1215 3.43076C71.0887 3.41797 71.0554 3.40696 71.0215 3.39776L70.8525 3.33876C70.7685 3.30976 70.6875 3.27276 70.5995 3.24676C70.5115 3.22076 70.4085 3.20276 70.3175 3.18076L70.1415 3.14376C70.1114 3.13427 70.0806 3.12692 70.0494 3.12176C69.8529 3.08717 69.6546 3.0638 69.4555 3.05176H68.8065L68.6455 3.06976L68.3525 3.09876C68.26 3.09466 68.1675 3.10341 68.0774 3.12476L67.8315 3.17976C67.6995 3.20176 67.5675 3.23076 67.4315 3.26376C67.3575 3.26921 67.2847 3.28538 67.2155 3.31176C67.0504 3.35576 66.8854 3.41176 66.7155 3.46176H66.6645C66.4645 3.52776 66.2645 3.60476 66.0645 3.68876L65.8225 3.79876L65.5915 3.90476C65.2915 4.04376 64.9975 4.19476 64.6915 4.37076L35.7755 21.0708C35.4601 21.2541 35.1485 21.4521 34.8405 21.6648L34.5475 21.8778C34.3385 22.0278 34.1335 22.1778 33.9275 22.3438L33.5935 22.6228C33.4065 22.7808 33.2265 22.9418 33.0395 23.1068L32.7095 23.4148L32.5005 23.6088C32.4305 23.6788 32.3615 23.7588 32.2915 23.8328C32.0715 24.0568 31.8515 24.2878 31.6385 24.5258C31.5725 24.6028 31.4995 24.6728 31.4295 24.7498L31.2645 24.9498C31.1365 25.0998 31.0115 25.2578 30.8975 25.4118C30.7835 25.5658 30.7285 25.6118 30.6485 25.7118C30.5685 25.8118 30.5205 25.8878 30.4575 25.9758C30.3945 26.0638 30.2745 26.2178 30.1865 26.3428L29.9955 26.5958C29.8955 26.7428 29.7955 26.8958 29.6955 27.0428L29.5045 27.3248L29.4275 27.4418C29.2515 27.7168 29.0825 27.9918 28.9175 28.2738L28.8885 28.3288L28.7885 28.4978C28.6745 28.6978 28.5615 28.8978 28.4545 29.0978C28.4035 29.1898 28.3545 29.2848 28.3115 29.3798L28.1615 29.6728C28.1215 29.7608 28.0735 29.8448 28.0335 29.9298C27.9195 30.1608 27.8175 30.3918 27.7145 30.6298L27.6595 30.7508L27.6415 30.7838C27.5165 31.0768 27.3955 31.3708 27.2745 31.6638C27.2565 31.7188 27.2375 31.7738 27.2155 31.8288C27.1935 31.8838 27.1425 32.0418 27.1015 32.1478C27.0605 32.2538 26.9915 32.4408 26.9435 32.5918C26.8955 32.7428 26.8735 32.8188 26.8375 32.9368C26.8015 33.0548 26.7535 33.2048 26.7165 33.3368C26.6795 33.4688 26.6615 33.5058 26.6395 33.5898C26.5955 33.7398 26.5665 33.8898 26.5295 34.0408C26.4925 34.1918 26.4415 34.3748 26.4045 34.5408C26.3968 34.601 26.382 34.66 26.3605 34.7168C26.3345 34.8378 26.3235 34.9548 26.3015 35.0838C26.2505 35.3438 26.2015 35.6048 26.1655 35.8648C26.157 35.9374 26.1446 36.0095 26.1285 36.0808C26.1065 36.2458 26.0955 36.4068 26.0805 36.5718C26.0655 36.7368 26.0545 36.8028 26.0475 36.9168C26.0185 37.2838 25.9995 37.6498 26.0035 37.9978L26.1285 93.7978C26.1285 96.8878 27.2285 99.0618 28.9915 100.085L32.9505 102.427C32.8391 102.358 32.7313 102.283 32.6275 102.203C34.4275 103.46 37.0275 103.416 39.9185 101.745L68.8415 85.0358C74.2525 81.9128 78.6295 74.3358 78.6105 68.1108L78.4855 12.3198Z" fill="#D27644"/>
<path opacity="0.6" d="M78.4855 12.3198C78.4855 9.22976 77.3855 7.05976 75.6225 6.03676L71.6675 3.70176L71.6125 3.67276C71.4544 3.58117 71.2904 3.50032 71.1215 3.43076C71.0887 3.41797 71.0554 3.40696 71.0215 3.39776L70.8525 3.33876C70.7685 3.30976 70.6875 3.27276 70.5995 3.24676C70.5115 3.22076 70.4085 3.20276 70.3175 3.18076L70.1415 3.14376C70.1114 3.13427 70.0806 3.12692 70.0494 3.12176C69.8529 3.08717 69.6546 3.0638 69.4555 3.05176H68.8065L68.6455 3.06976L68.3525 3.09876C68.26 3.09466 68.1675 3.10341 68.0774 3.12476L67.8315 3.17976C67.6995 3.20176 67.5675 3.23076 67.4315 3.26376C67.3575 3.26921 67.2847 3.28538 67.2155 3.31176C67.0504 3.35576 66.8854 3.41176 66.7155 3.46176H66.6645C66.4645 3.52776 66.2645 3.60476 66.0645 3.68876L65.8225 3.79876L65.5915 3.90476C65.2915 4.04376 64.9975 4.19476 64.6915 4.37076L35.7755 21.0708C35.4601 21.2541 35.1485 21.4521 34.8405 21.6648L34.5475 21.8778C34.3385 22.0278 34.1335 22.1778 33.9275 22.3438L33.5935 22.6228C33.4065 22.7808 33.2265 22.9418 33.0395 23.1068L32.7095 23.4148L32.5005 23.6088C32.4305 23.6788 32.3615 23.7588 32.2915 23.8328C32.0715 24.0568 31.8515 24.2878 31.6385 24.5258C31.5725 24.6028 31.4995 24.6728 31.4295 24.7498L31.2645 24.9498C31.1365 25.0998 31.0115 25.2578 30.8975 25.4118C30.7835 25.5658 30.7285 25.6118 30.6485 25.7118C30.5685 25.8118 30.5205 25.8878 30.4575 25.9758C30.3945 26.0638 30.2745 26.2178 30.1865 26.3428L29.9955 26.5958C29.8955 26.7428 29.7955 26.8958 29.6955 27.0428L29.5045 27.3248L29.4275 27.4418C29.2515 27.7168 29.0825 27.9918 28.9175 28.2738L28.8885 28.3288L28.7885 28.4978C28.6745 28.6978 28.5615 28.8978 28.4545 29.0978C28.4035 29.1898 28.3545 29.2848 28.3115 29.3798L28.1615 29.6728C28.1215 29.7608 28.0735 29.8448 28.0335 29.9298C27.9195 30.1608 27.8175 30.3918 27.7145 30.6298L27.6595 30.7508L27.6415 30.7838C27.5165 31.0768 27.3955 31.3708 27.2745 31.6638C27.2565 31.7188 27.2375 31.7738 27.2155 31.8288C27.1935 31.8838 27.1425 32.0418 27.1015 32.1478C27.0605 32.2538 26.9915 32.4408 26.9435 32.5918C26.8955 32.7428 26.8735 32.8188 26.8375 32.9368C26.8015 33.0548 26.7535 33.2048 26.7165 33.3368C26.6795 33.4688 26.6615 33.5058 26.6395 33.5898C26.5955 33.7398 26.5665 33.8898 26.5295 34.0408C26.4925 34.1918 26.4415 34.3748 26.4045 34.5408C26.3968 34.601 26.382 34.66 26.3605 34.7168C26.3345 34.8378 26.3235 34.9548 26.3015 35.0838C26.2505 35.3438 26.2015 35.6048 26.1655 35.8648C26.157 35.9374 26.1446 36.0095 26.1285 36.0808C26.1065 36.2458 26.0955 36.4068 26.0805 36.5718C26.0655 36.7368 26.0545 36.8028 26.0475 36.9168C26.0185 37.2838 25.9995 37.6498 26.0035 37.9978L26.1285 93.7978C26.1285 96.8878 27.2285 99.0618 28.9915 100.085L32.9505 102.427C32.8391 102.358 32.7313 102.283 32.6275 102.203C34.4275 103.46 37.0275 103.416 39.9185 101.745L68.8415 85.0358C74.2525 81.9128 78.6295 74.3358 78.6105 68.1108L78.4855 12.3198Z" fill="white"/>
<path opacity="0.1" d="M30.0973 96.1209L29.9873 40.3279L26.0283 37.9849L26.1533 93.7849C26.1533 96.8749 27.2533 99.0489 29.0163 100.072L32.9753 102.414C31.2003 101.389 30.1083 99.2149 30.0973 96.1209Z" fill="black"/>
<path opacity="0.3" d="M69.7824 6.14385C70.0588 6.01703 70.3415 5.90454 70.6294 5.80685H70.6804C70.9209 5.72688 71.1656 5.66012 71.4134 5.60685L71.8134 5.51885C71.9894 5.48585 72.1614 5.45985 72.3344 5.44185L72.6274 5.40885C72.8376 5.39793 73.0483 5.39793 73.2584 5.40885H73.4014C73.6475 5.42368 73.8923 5.45441 74.1344 5.50085L74.3104 5.54085C74.4916 5.58356 74.6702 5.63631 74.8454 5.69885L75.0144 5.75385C75.2359 5.84008 75.4506 5.94305 75.6564 6.06185L71.6684 3.69785L71.6134 3.66885C71.4554 3.57726 71.2914 3.49641 71.1224 3.42685C71.0897 3.41406 71.0563 3.40305 71.0224 3.39385L70.8534 3.33485C70.7694 3.30585 70.6884 3.26885 70.6004 3.24285C70.5124 3.21685 70.4094 3.19885 70.3184 3.17685L70.1424 3.13985C70.1123 3.13036 70.0816 3.12301 70.0504 3.11785C69.8539 3.08326 69.6556 3.05989 69.4564 3.04785H68.8074L68.6464 3.06585L68.3534 3.09485C68.261 3.09076 68.1685 3.0995 68.0784 3.12085L67.8324 3.17585C67.7004 3.19785 67.5684 3.22685 67.4324 3.25985C67.3585 3.2653 67.2857 3.28147 67.2164 3.30785C67.0514 3.35185 66.8864 3.40785 66.7164 3.45785H66.6654C66.4654 3.52385 66.2654 3.60085 66.0654 3.68485L65.8234 3.79485L65.5924 3.90085C65.2924 4.03985 64.9984 4.19085 64.6924 4.36685L35.7764 21.0669C35.4611 21.2502 35.1494 21.4482 34.8414 21.6609L34.5484 21.8769C34.3394 22.0238 34.1344 22.1768 33.9284 22.3388L33.5944 22.6178C33.4074 22.7758 33.2274 22.9368 33.0404 23.1018L32.7104 23.4098L32.5014 23.6038C32.4314 23.6738 32.3624 23.7539 32.2924 23.8279C32.0724 24.0519 31.8524 24.2828 31.6394 24.5208C31.5734 24.5978 31.5004 24.6679 31.4304 24.7449L31.2654 24.9449C31.1374 25.0949 31.0124 25.2528 30.8984 25.4068C30.7844 25.5608 30.7294 25.6069 30.6494 25.7069C30.5694 25.8069 30.5214 25.8829 30.4584 25.9709C30.3954 26.0589 30.2754 26.2128 30.1874 26.3378L29.9964 26.5909C29.8964 26.7379 29.7964 26.8909 29.6964 27.0379L29.5054 27.3199L29.4284 27.4368C29.2524 27.7118 29.0834 27.9868 28.9184 28.2688L28.8894 28.3238L28.7894 28.4928C28.6754 28.6928 28.5624 28.8929 28.4554 29.0929C28.4044 29.1849 28.3554 29.2799 28.3124 29.3749L28.1624 29.6679C28.1224 29.7558 28.0744 29.8399 28.0344 29.9249C27.9204 30.1559 27.8184 30.3869 27.7154 30.6249L27.6604 30.7459L27.6424 30.7789C27.5174 31.0718 27.3964 31.3658 27.2754 31.6588C27.2574 31.7138 27.2384 31.7688 27.2164 31.8238C27.1944 31.8788 27.1434 32.0368 27.1024 32.1428C27.0614 32.2488 26.9924 32.4359 26.9444 32.5868C26.8964 32.7378 26.8744 32.8139 26.8384 32.9319C26.8024 33.0499 26.7544 33.1999 26.7174 33.3319C26.6804 33.4639 26.6624 33.5009 26.6404 33.5849C26.5964 33.7348 26.5674 33.8849 26.5304 34.0359C26.4934 34.1869 26.4424 34.3699 26.4054 34.5359C26.3977 34.596 26.383 34.6551 26.3614 34.7118C26.3354 34.8328 26.3244 34.9499 26.3024 35.0789C26.2514 35.3389 26.2024 35.5999 26.1664 35.8599C26.158 35.9325 26.1456 36.0046 26.1294 36.0758C26.1074 36.2408 26.0964 36.4019 26.0814 36.5669C26.0664 36.7319 26.0554 36.7979 26.0484 36.9119C26.0194 37.2789 26.0004 37.6448 26.0044 37.9928L29.9634 40.3349C29.9563 39.974 29.9697 39.6131 30.0034 39.2538C30.0034 39.1368 30.0294 39.0229 30.0404 38.9058C30.0624 38.6708 30.0914 38.4369 30.1244 38.2059C30.1574 37.9749 30.2084 37.6849 30.2604 37.4249C30.2934 37.2449 30.3224 37.0578 30.3604 36.8899C30.3984 36.7219 30.4414 36.5559 30.4854 36.3899C30.5444 36.1589 30.6024 35.9239 30.6684 35.6899C30.7084 35.5579 30.7524 35.4219 30.7934 35.2899C30.8774 35.0299 30.9654 34.7658 31.0574 34.5058C31.0944 34.3998 31.1304 34.2899 31.1714 34.1828C31.3074 33.8158 31.4504 33.4499 31.6074 33.1089L31.6624 32.9839C31.8054 32.6649 31.9524 32.3498 32.1094 32.0348C32.1574 31.9348 32.2094 31.8348 32.2594 31.7418C32.4094 31.4418 32.5714 31.1519 32.7364 30.8589L32.8364 30.6899C33.0364 30.3489 33.2364 30.0149 33.4524 29.6899L33.6434 29.4039C33.8014 29.1688 33.9624 28.9379 34.1274 28.7039L34.4024 28.3368C34.5454 28.1458 34.6954 27.9699 34.8424 27.7719L35.2094 27.3059L35.5764 26.8839C35.7894 26.6459 36.0094 26.4149 36.2294 26.1909C36.3684 26.0479 36.5044 25.9089 36.6474 25.7729C36.7904 25.6369 36.8674 25.5638 36.9774 25.4648C37.1604 25.2958 37.3444 25.1349 37.5314 24.9809L37.8654 24.7019C38.0704 24.5409 38.2764 24.3869 38.4854 24.2359C38.5854 24.1659 38.6794 24.0889 38.7784 24.0229C39.0864 23.8102 39.3981 23.6122 39.7134 23.4289L68.6414 6.72685C68.9414 6.55085 69.2414 6.40085 69.5414 6.26085L69.7824 6.14385Z" fill="white"/>
<path d="M35.0285 96.1071C34.9729 96.8057 35.1113 97.5061 35.4285 98.1311C35.4701 98.1347 35.5119 98.1347 35.5535 98.1311C36.2368 98.0711 36.8938 97.8393 37.4635 97.4571L66.3795 80.7631C70.2795 78.5091 73.7115 72.6031 73.6795 68.1201L73.6505 53.7871L34.9805 76.3551L35.0285 96.1071Z" fill="#D27644"/>
<path d="M73.5617 12.3321C73.6159 11.6323 73.4735 10.9313 73.1507 10.3081H72.8717L72.7107 10.3341L72.5567 10.3671C72.4567 10.3891 72.3257 10.4261 72.2267 10.4591H72.1787C72.0533 10.5044 71.9307 10.5571 71.8117 10.6171L71.6757 10.6791C71.4557 10.7791 71.2837 10.8701 71.1327 10.9581L42.2167 27.6511C42.0367 27.7571 41.8497 27.8821 41.6267 28.0181L41.4067 28.1761C41.2637 28.2821 41.1207 28.3891 40.9817 28.4991L40.7817 28.6601L40.7417 28.6971C40.6027 28.8111 40.4707 28.9281 40.3417 29.0451L40.0957 29.2761L39.8317 29.5441L39.7837 29.5921C39.6147 29.7611 39.4497 29.9371 39.2927 30.1161L39.2377 30.1751L39.0027 30.4391L38.7027 30.8061C38.5857 30.9531 38.4677 31.0991 38.3577 31.2501L38.1417 31.5361C38.0137 31.7191 37.8847 31.9031 37.7747 32.0901L37.6207 32.3171C37.4447 32.5921 37.2797 32.8601 37.1367 33.1051L37.0557 33.2481C36.9237 33.4791 36.7987 33.7141 36.6887 33.9481L36.5717 34.1791C36.4467 34.4281 36.3297 34.6791 36.2047 34.9121C36.1827 34.9601 36.1647 35.0121 36.1387 35.0591C36.0387 35.3011 35.9297 35.5651 35.8157 35.8591L35.7277 36.1081C35.6547 36.3081 35.5887 36.5081 35.5277 36.7081C35.4947 36.8081 35.4617 36.9131 35.4277 37.0081C35.3767 37.1841 35.3277 37.3561 35.2887 37.5401L35.2627 37.6401L35.1967 37.9041L35.1527 38.1311L35.1237 38.2921C35.0867 38.4791 35.0537 38.6591 35.0237 38.8491C34.9937 39.0391 34.9797 39.1721 34.9647 39.3331L34.9387 39.5681C34.9167 39.8431 34.9097 40.0681 34.9097 40.2681L34.9867 74.6681L73.6607 52.0981L73.5617 12.3321Z" fill="#455A64"/>
<path d="M34.9766 74.7199V76.3619L73.6506 53.7919L73.6436 52.1499L34.9766 74.7199Z" fill="white"/>
<path d="M67.3963 31.7267L63.7123 33.8567C65.0393 30.9237 64.8563 27.9917 63.1623 27.0387C62.6115 26.7908 62.0046 26.6942 61.404 26.7587C60.8035 26.8232 60.2309 27.0465 59.7453 27.4057C58.3202 28.2915 57.1464 29.5283 56.3363 30.9977L55.3283 32.7427L55.1563 30.5127C55.1563 30.3257 55.0023 30.2527 54.8153 30.3477C54.727 30.4055 54.6515 30.4809 54.5935 30.5692C54.5355 30.6574 54.4963 30.7567 54.4783 30.8607L54.1633 32.9177L53.5843 32.5877C53.0338 32.3405 52.428 32.2425 51.8277 32.3036C51.2274 32.3647 50.6537 32.5827 50.1643 32.9357C48.7394 33.8208 47.5664 35.0578 46.7583 36.5277C45.0723 39.4607 44.9073 42.5617 46.2483 43.9587L42.5573 46.0887C42.4569 46.1521 42.3735 46.2389 42.3141 46.3417C42.2547 46.4445 42.2211 46.5601 42.2163 46.6787C42.2163 46.8947 42.3703 46.9787 42.5573 46.8787L46.8503 44.3897L48.1733 45.1447L55.0243 49.0447L55.8053 47.6917L55.8383 48.1137C55.8383 48.3047 55.9993 48.3777 56.1793 48.2787C56.272 48.2175 56.3505 48.1371 56.4093 48.0429C56.4682 47.9487 56.506 47.8429 56.5203 47.7327L56.6563 46.2187L61.8283 37.2597L63.1443 34.9837L67.4183 32.5167C67.5144 32.4501 67.5939 32.3622 67.6504 32.2599C67.707 32.1575 67.7391 32.0435 67.7443 31.9267C67.7453 31.7047 67.5873 31.6127 67.3963 31.7267Z" fill="#D27644"/>
<path d="M54.8123 30.3309C54.9993 30.2309 55.1383 30.3089 55.1533 30.4959L55.3253 32.7249L56.2013 43.8539L57.2603 32.2589C57.2714 32.1514 57.3061 32.0478 57.3619 31.9553C57.4178 31.8628 57.4934 31.7838 57.5833 31.7239C57.7593 31.6239 57.9023 31.6689 57.9313 31.8409L59.1853 38.6149L59.4203 36.6679C59.4354 36.5609 59.4733 36.4584 59.5315 36.3673C59.5896 36.2762 59.6666 36.1987 59.7573 36.1399L63.7123 33.8559L67.4003 31.7259C67.5913 31.6159 67.7453 31.7039 67.7453 31.9259C67.7384 32.044 67.7039 32.1589 67.6447 32.2613C67.5855 32.3638 67.5032 32.451 67.4043 32.5159L63.1313 34.9829L60.0473 36.7529L59.5593 40.7849C59.5447 40.8907 59.5077 40.9921 59.4508 41.0825C59.3939 41.1729 59.3184 41.2501 59.2293 41.3089C59.0573 41.4089 58.9173 41.3569 58.8843 41.1879L57.6843 34.6809L56.6363 46.2169L56.5003 47.7309C56.486 47.8411 56.4481 47.9468 56.3893 48.041C56.3304 48.1353 56.252 48.2157 56.1593 48.2769C55.9793 48.3769 55.8333 48.3029 55.8183 48.1119L55.7853 47.6899L54.6853 33.6429L52.8523 45.5529C52.8339 45.6561 52.7948 45.7544 52.7374 45.842C52.68 45.9297 52.6055 46.0048 52.5183 46.0629C52.3273 46.1629 52.1923 46.0889 52.1773 45.9019L51.4443 37.4709L50.6123 41.9179C50.5918 42.0177 50.5517 42.1125 50.4943 42.1968C50.437 42.281 50.3636 42.3531 50.2783 42.4089L46.8473 44.3849L42.5693 46.8559C42.5358 46.8825 42.4951 46.8983 42.4524 46.9013C42.4098 46.9043 42.3672 46.8943 42.3303 46.8727C42.2935 46.851 42.264 46.8188 42.2458 46.7801C42.2276 46.7414 42.2215 46.6981 42.2283 46.6559C42.2331 46.5373 42.2667 46.4216 42.3261 46.3189C42.3855 46.2161 42.469 46.1293 42.5693 46.0659L46.2603 43.9359L50.0213 41.7619L51.2673 35.1159C51.2868 35.0152 51.3265 34.9194 51.3839 34.8344C51.4413 34.7493 51.5152 34.6767 51.6013 34.6209C51.7923 34.5209 51.9243 34.6029 51.9423 34.7819L52.6533 42.8469L54.1743 32.8869L54.4893 30.8299C54.5074 30.7295 54.5453 30.6337 54.6007 30.548C54.6562 30.4623 54.7281 30.3885 54.8123 30.3309Z" fill="white"/>
<path d="M50.2097 56.189L50.2207 60.973L48.8207 61.783L48.8097 58.216L48.0947 58.627V57.414L50.2097 56.189Z" fill="white"/>
<path d="M52.2717 54.8879C53.2577 54.3199 53.9547 54.5209 53.9577 55.4159C53.9235 56.1186 53.6754 56.7941 53.2467 57.3519L52.6567 58.3199L54.0567 57.5139V58.7639L50.7207 60.6919V59.7019L52.2207 57.2309C52.4082 56.9856 52.5213 56.6916 52.5467 56.3839C52.5467 56.1569 52.4077 56.0909 52.1397 56.2449C51.8489 56.4323 51.6325 56.7152 51.5277 57.0449H50.4717C50.7993 56.1378 51.4368 55.3756 52.2717 54.8929V54.8879Z" fill="white"/>
<path d="M56.2195 52.6081C57.3195 51.9771 58.1075 52.4361 58.1115 54.0191C58.1353 54.7285 57.9749 55.432 57.6459 56.0609C57.317 56.6899 56.8307 57.2229 56.2345 57.6081C55.1345 58.2461 54.3425 57.7841 54.3345 56.1971C54.3124 55.4871 54.4743 54.7834 54.8047 54.1545C55.135 53.5256 55.6224 52.9929 56.2195 52.6081ZM56.2195 56.3181C56.4905 56.1601 56.6925 55.7571 56.6885 54.8521C56.6845 53.9471 56.4835 53.7521 56.2115 53.9211C55.9395 54.0901 55.7345 54.4821 55.7385 55.3871C55.7425 56.2921 55.9475 56.4871 56.2185 56.3221" fill="white"/>
<path d="M59.9253 53.836C60.2663 53.636 60.5593 53.766 60.5593 54.247C60.5566 54.4753 60.4977 54.6993 60.3879 54.8994C60.278 55.0994 60.1205 55.2693 59.9293 55.394C59.7683 55.486 59.6503 55.508 59.5623 55.453V55.574L59.0493 55.874V53.832L59.5883 53.52V54.162C59.6677 54.0238 59.7845 53.9108 59.9253 53.836ZM59.7973 54.987C59.8662 54.941 59.922 54.878 59.9594 54.8041C59.9967 54.7301 60.0142 54.6478 60.0103 54.565C60.0103 54.371 59.9103 54.327 59.7973 54.396C59.7291 54.4405 59.6738 54.5022 59.6371 54.5749C59.6004 54.6476 59.5836 54.7287 59.5883 54.81C59.5883 55.004 59.6803 55.053 59.7973 54.987Z" fill="white"/>
<path d="M61.6014 52.8637C61.9424 52.6697 62.2314 52.8018 62.2314 53.2858C62.2302 53.513 62.1721 53.7362 62.0626 53.9353C61.9531 54.1344 61.7956 54.303 61.6044 54.4258C61.4614 54.5068 61.3514 54.5318 61.2704 54.4878V55.1258L60.7314 55.4377V53.4027L61.2444 53.1028V53.2237C61.3276 53.0728 61.4512 52.9481 61.6014 52.8637ZM61.4764 54.0188C61.5452 53.9736 61.6011 53.9113 61.6384 53.838C61.6758 53.7647 61.6934 53.6829 61.6894 53.6007C61.6894 53.4067 61.5894 53.3587 61.4734 53.4287C61.4043 53.4745 61.3483 53.5375 61.311 53.6115C61.2736 53.6855 61.2562 53.768 61.2604 53.8507C61.2604 54.0447 61.3604 54.0878 61.4764 54.0188Z" fill="white"/>
<path d="M64.1343 51.4021C64.4343 51.2331 64.6553 51.31 64.6553 51.769V52.627L64.1163 52.939V52.2061C64.1163 52.0151 64.0573 51.979 63.9733 52.026C63.9151 52.0667 63.8688 52.1221 63.8391 52.1866C63.8094 52.2511 63.7974 52.3224 63.8043 52.3931V53.1261L63.2653 53.438V52.705C63.2653 52.514 63.2063 52.4781 63.1153 52.5291C63.0571 52.5697 63.0108 52.6251 62.9811 52.6896C62.9514 52.7541 62.9394 52.8254 62.9463 52.896V53.629L62.4033 53.941V52.441L62.9163 52.148V52.284C63.0053 52.1324 63.1317 52.0061 63.2833 51.9171C63.4553 51.8171 63.6023 51.8071 63.6943 51.9171C63.7881 51.7064 63.9409 51.5275 64.1343 51.4021Z" fill="white"/>
<path d="M41.7503 76.6487C43.0503 75.8977 44.1033 76.5017 44.1113 77.9907C44.0692 78.805 43.8346 79.5977 43.4268 80.3038C43.019 81.0099 42.4496 81.6092 41.7653 82.0527C40.4653 82.8037 39.4083 82.2027 39.4043 80.7077C39.4472 79.894 39.6822 79.102 40.0899 78.3965C40.4977 77.691 41.0666 77.0921 41.7503 76.6487Z" fill="white"/>
<path d="M70.0697 62.48V63.495L46.6597 77.011V75.999L70.0697 62.48Z" fill="white"/>
<path d="M70.0946 70.3647V71.3797L46.6846 84.8958V83.8808L70.0946 70.3647Z" fill="white"/>
<path d="M59.2405 78.5317V79.5437L46.6885 86.7917V85.7797L59.2405 78.5317Z" fill="white"/>
<path d="M55.8937 76.6631V77.6781L46.6777 83.0011V81.9861L55.8937 76.6631Z" fill="white"/>
<path d="M67.5215 65.8521V66.864L46.6665 78.9021V77.89L67.5215 65.8521Z" fill="white"/>
<path d="M61.0324 65.8008V66.8128L46.6514 75.1128V74.0978L61.0324 65.8008Z" fill="white"/>
<path d="M41.7767 84.5188C43.0767 83.7678 44.1337 84.3688 44.1377 85.8608C44.0947 86.6749 43.8597 87.4673 43.452 88.1733C43.0442 88.8792 42.4753 89.4787 41.7917 89.9228C40.4917 90.6738 39.4347 90.0698 39.4307 88.5778C39.4735 87.7641 39.7084 86.9721 40.1162 86.2666C40.5239 85.5611 41.093 84.9622 41.7767 84.5188Z" fill="white"/>
<path d="M100.349 95.201L96.3417 92.873L42.9497 119.461L46.9677 121.781L100.349 95.201Z" fill="#455A64"/>
<path d="M126.248 110.252L72.9575 136.782L77.2685 139.271L130.538 112.745L126.248 110.252Z" fill="#455A64"/>
<path opacity="0.3" d="M100.349 95.201L96.3417 92.873L42.9497 119.461L46.9677 121.781L100.349 95.201Z" fill="white"/>
<path d="M72.9575 136.785L46.9665 121.785L42.9485 119.465L35.4775 118.483L69.6775 138.359L77.2655 139.279L72.9575 136.785Z" fill="#455A64"/>
<path opacity="0.5" d="M72.9575 136.785L46.9665 121.785L42.9485 119.465L35.4775 118.483L69.6775 138.359L77.2655 139.279L72.9575 136.785Z" fill="white"/>
<path opacity="0.3" d="M126.248 110.252L72.9575 136.782L77.2685 139.271L130.538 112.745L126.248 110.252Z" fill="white"/>
<path d="M69.6805 138.354L35.4805 118.478L35.4875 127.496L35.4945 131.47L69.6945 151.346L69.6805 138.354Z" fill="#455A64"/>
<path d="M38.7857 128.508V125.508C38.785 125.379 38.8185 125.252 38.8826 125.14C38.9467 125.028 39.0393 124.935 39.1509 124.87C39.2625 124.806 39.3892 124.772 39.5182 124.771C39.6472 124.771 39.774 124.805 39.8857 124.87L65.4437 139.724C65.7222 139.885 65.9534 140.116 66.1142 140.395C66.275 140.673 66.3596 140.989 66.3597 141.311V144.311C66.3603 144.44 66.3268 144.567 66.2627 144.679C66.1986 144.791 66.106 144.884 65.9944 144.949C65.8828 145.013 65.7561 145.047 65.6271 145.047C65.4981 145.048 65.3713 145.014 65.2597 144.949L39.7127 130.091C39.4327 129.932 39.1996 129.702 39.0369 129.424C38.8741 129.146 38.7875 128.83 38.7857 128.508Z" fill="#37474F"/>
<path d="M69.6807 138.354L69.6917 151.346L130.555 116.206L130.54 112.746L77.2687 139.275L69.6807 138.354Z" fill="#455A64"/>
<path opacity="0.1" d="M69.6807 138.354L69.6917 151.346L130.555 116.206L130.54 112.746L77.2687 139.275L69.6807 138.354Z" fill="white"/>
<path d="M100.349 95.1997V96.8387H97.0566L100.349 95.1997Z" fill="#455A64"/>
<path d="M97.5883 96.5747L46.9673 121.783L72.9583 136.783L124.726 111.005L100.026 96.6497C99.6582 96.4356 99.2426 96.3165 98.817 96.303C98.3914 96.2896 97.9691 96.3823 97.5883 96.5728V96.5747Z" fill="#37474F"/>
<path d="M70.3515 98.7119C70.0597 98.7119 69.7799 98.8278 69.5737 99.0341C69.3674 99.2404 69.2515 99.5202 69.2515 99.8119V136.356C69.9165 136.771 70.6705 137.022 71.4515 137.089V99.8149C71.4515 99.5232 71.3356 99.2434 71.1293 99.0371C70.923 98.8308 70.6432 98.7149 70.3515 98.7149V98.7119Z" fill="#E0E0E0"/>
<path opacity="0.2" d="M70.3515 98.7119C70.0597 98.7119 69.7799 98.8278 69.5737 99.0341C69.3674 99.2404 69.2515 99.5202 69.2515 99.8119V136.356C69.9165 136.771 70.6705 137.022 71.4515 137.089V99.8149C71.4515 99.5232 71.3356 99.2434 71.1293 99.0371C70.923 98.8308 70.6432 98.7149 70.3515 98.7149V98.7119Z" fill="black"/>
<path opacity="0.3" d="M70.3515 98.7119C70.0597 98.7119 69.7799 98.8278 69.5737 99.0341C69.3674 99.2404 69.2515 99.5202 69.2515 99.8119V102.976C69.9015 103.091 70.5603 103.15 71.2205 103.152H71.4555V99.8159C71.4555 99.5242 71.3396 99.2444 71.1333 99.0381C70.927 98.8318 70.6472 98.7159 70.3555 98.7159L70.3515 98.7119Z" fill="black"/>
<path d="M41.4027 83.0811C41.2583 83.0811 41.1152 83.1095 40.9818 83.1648C40.8483 83.2201 40.7271 83.3011 40.6249 83.4033C40.5228 83.5054 40.4418 83.6266 40.3865 83.7601C40.3312 83.8936 40.3027 84.0366 40.3027 84.1811V120.003C40.9764 120.385 41.7294 120.606 42.5027 120.648V84.1841C42.5027 83.8923 42.3868 83.6125 42.1806 83.4062C41.9743 83.2 41.6945 83.0841 41.4027 83.0841V83.0811Z" fill="#E0E0E0"/>
<path opacity="0.2" d="M41.4027 83.0811C41.2583 83.0811 41.1152 83.1095 40.9818 83.1648C40.8483 83.2201 40.7271 83.3011 40.6249 83.4033C40.5228 83.5054 40.4418 83.6266 40.3865 83.7601C40.3312 83.8936 40.3027 84.0366 40.3027 84.1811V120.003C40.9764 120.385 41.7294 120.606 42.5027 120.648V84.1841C42.5027 83.8923 42.3868 83.6125 42.1806 83.4062C41.9743 83.2 41.6945 83.0841 41.4027 83.0841V83.0811Z" fill="black"/>
<path opacity="0.3" d="M41.4027 83.0811C41.2583 83.0811 41.1152 83.1095 40.9818 83.1648C40.8483 83.2201 40.7271 83.3011 40.6249 83.4033C40.5228 83.5054 40.4418 83.6266 40.3865 83.7601C40.3312 83.8936 40.3027 84.0366 40.3027 84.1811V87.0511L42.5027 88.3271V84.1851C42.5027 83.8933 42.3868 83.6135 42.1806 83.4073C41.9743 83.201 41.6945 83.0851 41.4027 83.0851V83.0811Z" fill="black"/>
<path d="M49.7604 75.6357C49.6865 75.5329 49.588 75.4502 49.4739 75.3952C49.3599 75.3402 49.2339 75.3146 49.1074 75.3207L42.0254 76.9337C42.1563 76.9206 42.2883 76.9429 42.4076 76.9983C42.5269 77.0537 42.629 77.1402 42.7034 77.2487C42.9246 77.5416 43.0732 77.8827 43.1369 78.2441C43.2007 78.6055 43.1779 78.9768 43.0704 79.3277C43.0414 79.4559 42.9785 79.5739 42.8883 79.6695C42.798 79.765 42.6837 79.8345 42.5574 79.8707L49.6064 78.2577C49.7342 78.2227 49.8502 78.1538 49.9419 78.0582C50.0336 77.9626 50.0977 77.8439 50.1274 77.7147C50.2328 77.3637 50.2545 76.993 50.1907 76.6321C50.127 76.2713 49.9796 75.9304 49.7604 75.6367V75.6357Z" fill="#455A64"/>
<path d="M43.0846 79.3269C43.1923 78.976 43.2151 78.6046 43.1513 78.2432C43.0875 77.8818 42.9389 77.5407 42.7176 77.2479C42.6433 77.1394 42.5411 77.0529 42.4218 76.9975C42.3025 76.942 42.1705 76.9197 42.0396 76.9329L41.9956 76.9509C41.8798 76.9934 41.776 77.0632 41.6929 77.1544C41.6099 77.2456 41.5501 77.3556 41.5186 77.4749C41.4117 77.8258 41.3892 78.1971 41.4529 78.5584C41.5167 78.9197 41.665 79.2608 41.8856 79.5539C41.9589 79.662 42.0597 79.7486 42.1777 79.8047C42.2957 79.8608 42.4265 79.8843 42.5566 79.8729H42.5746C42.7008 79.836 42.8147 79.7658 42.9044 79.6697C42.9941 79.5737 43.0564 79.4553 43.0846 79.3269Z" fill="#263238"/>
<path d="M84.1563 95.8769C84.0837 95.7734 83.9862 95.6899 83.8727 95.6341C83.7593 95.5784 83.6336 95.5522 83.5073 95.5579L76.4253 97.1779C76.5565 97.1652 76.6888 97.1881 76.8081 97.2442C76.9275 97.3004 77.0294 97.3877 77.1033 97.4969C77.3236 97.7894 77.4717 98.1298 77.5355 98.4904C77.5993 98.851 77.5769 99.2216 77.4703 99.5719C77.4389 99.6996 77.3746 99.8169 77.284 99.9121C77.1933 100.007 77.0793 100.077 76.9533 100.115L84.0023 98.5059C84.1289 98.4685 84.2435 98.3987 84.3348 98.3035C84.4262 98.2083 84.4912 98.0909 84.5233 97.9629C84.6314 97.611 84.6546 97.2384 84.5908 96.8757C84.527 96.5131 84.3781 96.1708 84.1563 95.8769Z" fill="#455A64"/>
<path d="M76.3745 97.1779C76.3891 97.1764 76.4039 97.1764 76.4185 97.1779H76.3745Z" fill="#455A64"/>
<path d="M77.4895 99.563C77.5962 99.2126 77.6185 98.8421 77.5547 98.4815C77.491 98.1209 77.3429 97.7804 77.1225 97.488C77.0487 97.3787 76.9467 97.2914 76.8274 97.2353C76.7081 97.1791 76.5758 97.1562 76.4445 97.169C76.4299 97.1673 76.4152 97.1673 76.4005 97.169C76.2848 97.212 76.1813 97.2826 76.0989 97.3746C76.0165 97.4666 75.9577 97.5772 75.9275 97.697C75.82 98.0472 75.7972 98.4179 75.861 98.7787C75.9248 99.1394 76.0734 99.4799 76.2946 99.772C76.3678 99.8801 76.4687 99.9667 76.5866 100.023C76.7046 100.079 76.8354 100.102 76.9655 100.091C77.091 100.056 77.2053 99.9885 77.2971 99.896C77.3889 99.8034 77.4552 99.6887 77.4895 99.563Z" fill="#263238"/>
<g opacity="0.4">
<path d="M49.7604 75.6357C49.6865 75.5329 49.588 75.4502 49.4739 75.3952C49.3599 75.3402 49.2339 75.3146 49.1074 75.3207L42.0254 76.9337C42.1563 76.9206 42.2883 76.9429 42.4076 76.9983C42.5269 77.0537 42.629 77.1402 42.7034 77.2487C42.9246 77.5416 43.0732 77.8827 43.1369 78.2441C43.2007 78.6055 43.1779 78.9768 43.0704 79.3277C43.0414 79.4559 42.9785 79.5739 42.8883 79.6695C42.798 79.765 42.6837 79.8345 42.5574 79.8707L49.6064 78.2577C49.7342 78.2227 49.8502 78.1538 49.9419 78.0582C50.0336 77.9626 50.0977 77.8439 50.1274 77.7147C50.2328 77.3637 50.2545 76.993 50.1907 76.6321C50.127 76.2713 49.9796 75.9304 49.7604 75.6367V75.6357Z" fill="white"/>
</g>
<g opacity="0.4">
<path d="M84.1563 95.8769C84.0837 95.7734 83.9862 95.6899 83.8727 95.6341C83.7593 95.5784 83.6336 95.5522 83.5073 95.5579L76.4253 97.1779C76.5565 97.1652 76.6888 97.1881 76.8081 97.2442C76.9275 97.3004 77.0294 97.3877 77.1033 97.4969C77.3236 97.7894 77.4717 98.1298 77.5355 98.4904C77.5993 98.851 77.5769 99.2216 77.4703 99.5719C77.4389 99.6996 77.3746 99.8169 77.284 99.9121C77.1933 100.007 77.0793 100.077 76.9533 100.115L84.0023 98.5059C84.1289 98.4685 84.2435 98.3987 84.3348 98.3035C84.4262 98.2083 84.4912 98.0909 84.5233 97.9629C84.6314 97.611 84.6546 97.2384 84.5908 96.8757C84.527 96.5131 84.3781 96.1708 84.1563 95.8769Z" fill="white"/>
<path d="M76.3745 97.1779C76.3891 97.1764 76.4039 97.1764 76.4185 97.1779H76.3745Z" fill="white"/>
</g>
<path d="M76.2786 97.7341L73.4636 98.434C71.1531 99.016 68.7066 98.6726 66.6456 97.477L40.8526 82.5871C40.5969 82.4429 40.3903 82.2253 40.2596 81.9624C40.129 81.6995 40.0803 81.4034 40.1198 81.1125C40.1594 80.8216 40.2853 80.5493 40.4814 80.3308C40.6775 80.1123 40.9347 79.9577 41.2196 79.8871L42.3486 79.608C42.7376 79.293 42.6936 77.5811 41.8686 77.4561L40.6846 77.746C39.971 77.9196 39.326 78.3034 38.8331 78.8478C38.3402 79.3922 38.0222 80.0721 37.9203 80.7994C37.8183 81.5266 37.9372 82.2678 38.2614 82.9267C38.5856 83.5857 39.1002 84.132 39.7386 84.495L65.5416 99.3761C67.2678 100.378 69.2278 100.906 71.2236 100.908C72.1638 100.9 73.0995 100.777 74.0096 100.541L76.7666 99.8551C77.1476 99.5741 77.1036 97.8621 76.2786 97.7341Z" fill="#E0E0E0"/>
<path d="M43.8843 87.0507V79.4077L60.4243 88.9607V96.5997L43.8843 87.0507Z" fill="#455A64"/>
<path d="M60.4243 88.9609L70.3513 93.804V96.6039H60.4243V88.9609Z" fill="#455A64"/>
<path d="M43.8843 79.4077L60.4243 88.9607L70.3513 93.8027L53.8073 84.2537L43.8843 79.4077Z" fill="#455A64"/>
<path opacity="0.1" d="M60.4243 88.9609L70.3513 93.804V96.6039H60.4243V88.9609Z" fill="white"/>
<path opacity="0.3" d="M43.8843 79.4077L60.4243 88.9607L70.3513 93.8027L53.8073 84.2537L43.8843 79.4077Z" fill="white"/>
<path opacity="0.2" d="M99.1067 109.714C105.438 113.38 105.471 119.293 99.1837 122.948C92.8967 126.603 82.6657 126.614 76.3347 122.948C70.0037 119.282 69.9747 113.369 76.2617 109.714C82.5487 106.059 92.7787 106.059 99.1067 109.714Z" fill="black"/>
<path d="M87.1259 68.412L88.5149 62.3521C86.6206 62.6174 84.8294 63.376 83.3209 64.552L76.0479 70.2711L81.0479 71.8141L87.1259 68.412Z" fill="#FFA8A7"/>
<path d="M90.5249 95.6602L91.5399 97.9511C91.8243 98.5963 92.3078 99.1334 92.9197 99.4838C93.5315 99.8342 94.2395 99.9794 94.9399 99.8981L103.518 98.9192C104.239 98.8377 104.969 98.8912 105.67 99.0771L107.547 99.5771V95.1772L107.034 95.3271C106.047 95.6205 104.999 95.6457 103.999 95.4001L100.872 94.6302C99.3918 94.2664 97.8414 94.3044 96.3809 94.7401L96.0619 92.1401L90.5249 95.6602Z" fill="#F28F8F"/>
<path d="M113.836 101.451C113.803 100.389 113.357 99.3813 112.593 98.6431C112.028 98.1081 111.317 97.7491 110.782 97.1771C110.264 96.4975 109.796 95.781 109.382 95.0331C109.289 94.9063 109.161 94.8085 109.015 94.7511C108.961 94.7457 108.907 94.7457 108.854 94.7511C108.667 94.7659 108.485 94.8183 108.319 94.9052C108.532 94.9417 108.723 95.0601 108.851 95.2351C109.309 96.0228 109.82 96.7785 110.38 97.4971C110.912 98.0511 111.623 98.4021 112.187 98.9271C112.948 99.6404 113.395 100.627 113.43 101.669C113.459 102.699 113.082 104.477 112.33 104.477C112.568 104.536 112.82 104.498 113.03 104.371C113.618 103.515 113.901 102.487 113.836 101.451Z" fill="#EBEBEB"/>
<path d="M109.378 95.032C109.795 95.778 110.263 96.4947 110.778 97.177C111.313 97.749 112.024 98.108 112.589 98.643C113.353 99.3812 113.799 100.389 113.832 101.451C113.884 102.479 113.608 103.497 113.044 104.358C113.844 103.878 114.063 102.18 114.037 101.352C114.001 100.31 113.556 99.3249 112.798 98.61C112.233 98.086 111.519 97.734 110.987 97.177C110.468 96.514 109.997 95.8145 109.579 95.084C109.512 94.9934 109.429 94.9171 109.332 94.8597C109.236 94.8023 109.129 94.765 109.018 94.75C109.162 94.8085 109.286 94.9062 109.378 95.032Z" fill="#455A64"/>
<path d="M106.845 95.2113C106.663 95.2911 106.463 95.3201 106.266 95.2953C106.266 95.2953 105.687 95.2363 105.496 95.1953C105.129 95.1253 105.096 95.5403 105.096 95.5403C105.314 95.5634 105.534 95.5634 105.752 95.5403C105.801 95.6166 105.867 95.6816 105.943 95.7308C106.02 95.7801 106.106 95.8127 106.196 95.8263C106.379 95.8623 106.559 95.9176 106.731 95.9913C106.816 96.0301 106.888 96.0932 106.938 96.1727C106.987 96.2522 107.012 96.3446 107.01 96.4383C106.977 96.6433 106.775 96.7643 106.643 96.9383C106.581 97.0385 106.547 97.1527 106.541 97.2701C106.536 97.3874 106.561 97.5042 106.614 97.6093C106.496 97.5589 106.365 97.5507 106.242 97.5861C106.119 97.6214 106.012 97.6982 105.94 97.8033C105.802 98.025 105.719 98.2762 105.698 98.5363C105.66 98.7096 105.647 98.8874 105.661 99.0643C105.667 99.1535 105.691 99.2404 105.732 99.3199C105.773 99.3993 105.83 99.4696 105.899 99.5263C105.969 99.5809 106.055 99.6105 106.144 99.6105C106.233 99.6105 106.32 99.5809 106.39 99.5263C106.859 100.289 109.004 100.578 110.078 102.019C111.152 103.46 111.387 104.482 112.34 104.482C113.073 104.482 113.44 102.704 113.44 101.674C113.405 100.632 112.958 99.6456 112.197 98.9323C111.632 98.4083 110.921 98.0563 110.39 97.5023C109.83 96.7836 109.319 96.0279 108.861 95.2403C108.733 95.0652 108.542 94.9469 108.329 94.9103C108.264 94.9029 108.199 94.9029 108.135 94.9103C107.69 94.9287 107.252 95.0308 106.845 95.2113Z" fill="#D27644"/>
<path d="M112.058 104.219L112.3 103.556C112.316 103.513 112.344 103.476 112.38 103.447C112.416 103.419 112.459 103.401 112.505 103.395C112.744 103.402 112.983 103.358 113.204 103.266C113.425 103.174 113.624 103.035 113.788 102.86C113.742 103.272 113.609 103.67 113.399 104.026C113.275 104.24 113.074 104.398 112.837 104.466C112.599 104.534 112.345 104.508 112.127 104.392C112.096 104.378 112.071 104.352 112.058 104.32C112.045 104.288 112.045 104.253 112.057 104.22L112.058 104.219Z" fill="#455A64"/>
<path d="M107.417 98.045C107.417 98.0712 107.411 98.097 107.4 98.121C107.39 98.1449 107.374 98.1663 107.355 98.184C107.112 98.3935 106.945 98.6783 106.882 98.9932C106.819 99.3081 106.863 99.635 107.007 99.922C107.026 99.9648 107.027 100.013 107.011 100.057C106.995 100.101 106.963 100.137 106.922 100.158C106.88 100.179 106.832 100.184 106.787 100.17C106.742 100.157 106.704 100.127 106.681 100.087C106.502 99.7263 106.446 99.3165 106.523 98.921C106.601 98.5262 106.808 98.1689 107.113 97.906C107.15 97.8746 107.198 97.8589 107.247 97.8623C107.295 97.8656 107.34 97.8878 107.373 97.924C107.402 97.9577 107.417 98.0007 107.417 98.045Z" fill="#37474F"/>
<path d="M108.542 98.5622C108.542 98.6117 108.522 98.6592 108.487 98.6942C108.255 98.924 108.086 99.2098 107.997 99.5238C107.907 99.8379 107.901 100.17 107.977 100.487C107.983 100.511 107.983 100.536 107.98 100.561C107.976 100.585 107.967 100.609 107.954 100.63C107.941 100.651 107.924 100.669 107.904 100.684C107.884 100.698 107.861 100.709 107.837 100.715C107.813 100.72 107.788 100.721 107.764 100.718C107.739 100.714 107.716 100.705 107.695 100.692C107.673 100.679 107.655 100.662 107.641 100.642C107.626 100.622 107.616 100.599 107.61 100.575C107.519 100.195 107.528 99.7988 107.635 99.4233C107.741 99.0478 107.942 98.7059 108.219 98.4302C108.236 98.413 108.256 98.3994 108.278 98.3901C108.301 98.3808 108.325 98.376 108.349 98.376C108.373 98.376 108.397 98.3808 108.419 98.3901C108.441 98.3994 108.462 98.413 108.479 98.4302C108.498 98.4465 108.513 98.4667 108.524 98.4895C108.535 98.5122 108.541 98.537 108.542 98.5622Z" fill="#37474F"/>
<path d="M109.535 99.3772C109.535 99.4048 109.528 99.432 109.516 99.4568C109.504 99.4816 109.486 99.5033 109.465 99.5202C109.258 99.6901 109.099 99.9109 109.003 100.161C108.907 100.411 108.878 100.682 108.919 100.946C108.923 100.97 108.922 100.994 108.917 101.018C108.911 101.042 108.901 101.064 108.887 101.084C108.873 101.103 108.856 101.12 108.835 101.133C108.815 101.146 108.792 101.155 108.768 101.159C108.744 101.163 108.72 101.162 108.696 101.157C108.673 101.151 108.65 101.141 108.631 101.127C108.611 101.113 108.594 101.096 108.581 101.075C108.568 101.055 108.56 101.032 108.556 101.008C108.503 100.678 108.539 100.34 108.659 100.028C108.778 99.7158 108.978 99.4407 109.238 99.2302C109.265 99.208 109.298 99.1941 109.333 99.1901C109.368 99.1862 109.403 99.1923 109.435 99.2077C109.466 99.2232 109.493 99.2474 109.511 99.2774C109.529 99.3074 109.538 99.342 109.538 99.3772H109.535Z" fill="#37474F"/>
<path d="M110.353 100.164C110.352 100.19 110.347 100.215 110.336 100.239C110.325 100.262 110.31 100.283 110.291 100.3C110.114 100.463 109.979 100.665 109.895 100.89C109.812 101.115 109.783 101.356 109.811 101.594C109.814 101.618 109.812 101.642 109.806 101.666C109.8 101.689 109.789 101.711 109.774 101.73C109.76 101.749 109.741 101.765 109.72 101.777C109.7 101.788 109.677 101.796 109.653 101.799C109.629 101.803 109.604 101.801 109.581 101.795C109.558 101.789 109.536 101.779 109.517 101.764C109.498 101.749 109.482 101.731 109.47 101.71C109.458 101.689 109.45 101.665 109.448 101.641C109.412 101.344 109.448 101.043 109.553 100.762C109.657 100.482 109.827 100.23 110.048 100.028C110.065 100.011 110.085 99.9975 110.107 99.9882C110.13 99.9789 110.154 99.9741 110.178 99.9741C110.202 99.9741 110.226 99.9789 110.248 99.9882C110.27 99.9975 110.291 100.011 110.308 100.028C110.339 100.067 110.355 100.115 110.353 100.164Z" fill="#37474F"/>
<path d="M86.8076 79.9692C86.7141 83.2624 87.0844 86.5523 87.9076 89.7422L87.3316 91.1202C87.1886 94.6572 92.4016 96.5892 94.7916 95.2112C98.5376 89.2212 100.437 85.9732 99.7006 82.2052L86.8076 79.9692Z" fill="#263238"/>
<path opacity="0.3" d="M88.218 89.1422L90.524 84.5522C89.1288 83.9558 87.9444 82.9547 87.124 81.6782C87.4204 82.9745 88.1904 84.1133 89.283 84.8712C88.4651 86.1378 88.0905 87.6399 88.218 89.1422Z" fill="black"/>
<path d="M94.872 93.907C94.381 91.707 91.041 89.314 88.193 90.08L85.532 95.964C85.0839 96.9552 84.8131 98.0173 84.732 99.102L83.673 113.307C83.6007 114.301 83.4213 115.284 83.138 116.24L83.105 116.35L86.805 117.34C86.8193 115.699 87.1271 114.073 87.714 112.54L90.544 105.157C91.092 103.719 91.3414 102.185 91.277 100.648L91.233 99.486L94.872 93.907Z" fill="#FFA8A7"/>
<path d="M81.0226 123.571C82.082 123.537 83.0864 123.091 83.8226 122.328C84.3616 121.763 84.7226 121.052 85.2886 120.521C85.9692 119.999 86.6875 119.527 87.4376 119.11C87.5644 119.017 87.6622 118.89 87.7196 118.743C87.7252 118.69 87.7252 118.636 87.7196 118.582C87.7055 118.396 87.6545 118.214 87.5696 118.047C87.5523 118.153 87.5142 118.255 87.4576 118.346C87.4009 118.438 87.3269 118.517 87.2396 118.579C86.4532 119.038 85.6988 119.55 84.9816 120.11C84.4246 120.641 84.0726 121.356 83.5486 121.917C82.8354 122.679 81.8492 123.126 80.8066 123.16C79.7806 123.189 77.9986 122.815 77.9986 122.06C77.9399 122.299 77.978 122.55 78.1046 122.76C78.9651 123.337 79.9881 123.621 81.0226 123.571Z" fill="#EBEBEB"/>
<path d="M87.4377 119.099C86.6933 119.522 85.9769 119.992 85.2927 120.507C84.7247 121.039 84.3657 121.75 83.8267 122.314C83.0905 123.077 82.0862 123.523 81.0267 123.557C79.9963 123.62 78.9737 123.343 78.1157 122.769C78.5957 123.569 80.2967 123.788 81.1217 123.762C82.1638 123.729 83.15 123.283 83.8637 122.523C84.3877 121.958 84.7397 121.247 85.2967 120.712C85.9623 120.193 86.6641 119.723 87.3967 119.304C87.4877 119.239 87.564 119.155 87.6208 119.058C87.6776 118.962 87.7137 118.854 87.7267 118.743C87.6656 118.887 87.5655 119.01 87.4377 119.099Z" fill="#455A64"/>
<path d="M87.2619 116.565C87.1812 116.384 87.1521 116.185 87.1779 115.989C87.1779 115.989 87.2329 115.406 87.2699 115.219C87.3399 114.852 87.0569 114.834 87.0569 114.834C87.0569 114.834 87.0019 115.124 86.9569 115.465C86.878 115.515 86.8099 115.581 86.7563 115.657C86.7028 115.734 86.6649 115.821 86.6449 115.912C86.6088 116.096 86.5535 116.275 86.4799 116.447C86.4415 116.533 86.3784 116.605 86.2988 116.654C86.2192 116.704 86.1267 116.729 86.0329 116.726C85.8329 116.697 85.7069 116.491 85.5379 116.359C85.4371 116.298 85.3225 116.263 85.2046 116.258C85.0868 116.253 84.9696 116.278 84.8639 116.33C84.9157 116.213 84.9246 116.082 84.8891 115.959C84.8536 115.836 84.776 115.73 84.6699 115.659C84.4488 115.519 84.1974 115.435 83.9369 115.413C83.762 115.377 83.5831 115.365 83.4049 115.376C83.3162 115.382 83.2297 115.406 83.1509 115.447C83.072 115.488 83.0026 115.545 82.9469 115.614C82.8923 115.684 82.8627 115.771 82.8627 115.859C82.8627 115.948 82.8923 116.035 82.9469 116.105C82.1809 116.574 81.8909 118.719 80.4469 119.793C79.0029 120.867 77.9839 121.105 77.9839 122.055C77.9839 122.788 79.7659 123.155 80.7919 123.155C81.8345 123.12 82.8206 122.673 83.5339 121.912C84.0579 121.351 84.4099 120.636 84.9669 120.105C85.6842 119.545 86.4386 119.034 87.2249 118.576C87.3376 118.491 87.4279 118.38 87.488 118.252C87.5481 118.124 87.5763 117.984 87.5699 117.843C87.5443 117.402 87.44 116.969 87.2619 116.565Z" fill="#D27644"/>
<path d="M78.2507 121.78L78.9147 122.022C78.9592 122.038 78.9983 122.066 79.0275 122.103C79.0567 122.14 79.0748 122.184 79.0797 122.231C79.0712 122.47 79.1143 122.708 79.2061 122.929C79.2979 123.149 79.4363 123.348 79.6117 123.51C79.2014 123.466 78.8052 123.335 78.4497 123.125C78.2354 123.001 78.0774 122.799 78.009 122.561C77.9405 122.323 77.967 122.068 78.0827 121.849C78.0978 121.819 78.1231 121.796 78.1539 121.783C78.1848 121.771 78.2191 121.77 78.2507 121.78Z" fill="#455A64"/>
<path d="M84.4287 117.14C84.4021 117.14 84.3758 117.134 84.3518 117.123C84.3278 117.111 84.3066 117.095 84.2897 117.074C84.0788 116.832 83.7942 116.666 83.4797 116.601C83.1638 116.538 82.8359 116.583 82.5487 116.729C82.505 116.751 82.4543 116.755 82.4079 116.739C82.3615 116.724 82.3231 116.691 82.3012 116.647C82.2793 116.603 82.2757 116.552 82.2912 116.506C82.3067 116.46 82.34 116.421 82.3837 116.399C82.7461 116.214 83.1602 116.157 83.5593 116.236C83.9584 116.315 84.3193 116.526 84.5837 116.835C84.6054 116.863 84.6187 116.897 84.622 116.932C84.6253 116.967 84.6185 117.003 84.6023 117.034C84.5861 117.066 84.5613 117.092 84.5307 117.11C84.5001 117.128 84.4651 117.137 84.4297 117.135L84.4287 117.14Z" fill="#37474F"/>
<path d="M83.9066 118.263C83.857 118.263 83.8096 118.243 83.7746 118.208C83.5451 117.977 83.2601 117.808 82.9468 117.719C82.6335 117.63 82.3025 117.622 81.9856 117.698C81.9619 117.704 81.9373 117.705 81.9132 117.702C81.889 117.698 81.8658 117.69 81.8449 117.677C81.824 117.664 81.8059 117.648 81.7916 117.628C81.7773 117.608 81.7671 117.586 81.7616 117.562C81.7556 117.539 81.7543 117.515 81.7577 117.491C81.7611 117.467 81.7692 117.445 81.7815 117.424C81.7938 117.404 81.81 117.386 81.8293 117.372C81.8485 117.358 81.8704 117.348 81.8936 117.342C82.2733 117.251 82.6701 117.259 83.0457 117.366C83.4214 117.473 83.7633 117.674 84.0386 117.951C84.0642 117.977 84.0816 118.009 84.0885 118.045C84.0954 118.081 84.0915 118.118 84.0773 118.151C84.0632 118.185 84.0394 118.213 84.009 118.233C83.9786 118.253 83.9429 118.263 83.9066 118.263Z" fill="#37474F"/>
<path d="M83.1087 119.241C83.0806 119.241 83.0529 119.234 83.0275 119.222C83.0021 119.21 82.9797 119.193 82.9617 119.171C82.7924 118.963 82.5719 118.803 82.3218 118.707C82.0717 118.61 81.8007 118.581 81.5357 118.621C81.5112 118.626 81.4859 118.626 81.4613 118.621C81.4368 118.616 81.4136 118.606 81.393 118.592C81.3724 118.577 81.3549 118.559 81.3416 118.538C81.3282 118.517 81.3193 118.493 81.3153 118.468C81.3114 118.444 81.3124 118.418 81.3185 118.394C81.3245 118.37 81.3354 118.347 81.3504 118.327C81.3655 118.307 81.3845 118.29 81.4062 118.278C81.4279 118.265 81.4518 118.257 81.4767 118.254C81.8063 118.202 82.1437 118.238 82.4551 118.357C82.7665 118.477 83.0409 118.677 83.2507 118.936C83.2731 118.963 83.2873 118.996 83.2916 119.031C83.2959 119.065 83.2902 119.1 83.2752 119.132C83.2602 119.164 83.2364 119.19 83.2067 119.209C83.177 119.227 83.1427 119.237 83.1077 119.236L83.1087 119.241Z" fill="#37474F"/>
<path d="M82.3138 120.074C82.288 120.074 82.2624 120.069 82.2389 120.058C82.2154 120.048 82.1946 120.032 82.1779 120.012C82.014 119.836 81.8108 119.701 81.585 119.618C81.3591 119.535 81.1168 119.507 80.8779 119.535C80.8297 119.539 80.7817 119.525 80.7436 119.495C80.7056 119.465 80.6803 119.422 80.6729 119.374C80.6698 119.35 80.6715 119.326 80.678 119.302C80.6844 119.279 80.6955 119.257 80.7105 119.238C80.7255 119.219 80.7441 119.203 80.7653 119.191C80.7864 119.179 80.8098 119.172 80.8339 119.169C81.131 119.134 81.4323 119.17 81.7127 119.275C81.9931 119.379 82.2448 119.549 82.4469 119.769C82.4696 119.796 82.4844 119.829 82.4894 119.863C82.4945 119.898 82.4896 119.934 82.4754 119.966C82.4612 119.998 82.4383 120.025 82.4092 120.045C82.38 120.065 82.346 120.076 82.3109 120.077L82.3138 120.074Z" fill="#37474F"/>
<path d="M96.5219 62.0283C94.5155 61.8707 92.5004 61.856 90.4919 61.9843C89.5899 61.9975 88.702 62.2103 87.8919 62.6073C87.3761 62.9365 86.9314 63.3656 86.5839 63.8693C86.2365 64.373 85.9934 64.9412 85.8689 65.5403C85.6301 66.7379 85.5538 67.9623 85.6419 69.1803C85.7479 73.1613 86.0419 76.5593 86.4739 80.5183C90.4289 82.8023 95.6379 83.8833 100.037 82.6293C100.179 77.4037 99.7685 72.1777 98.8129 67.0383C98.4469 65.2283 97.9149 63.2613 96.5219 62.0283Z" fill="#455A64"/>
<path opacity="0.3" d="M96.5219 62.0283C94.5155 61.8707 92.5004 61.856 90.4919 61.9843C89.5899 61.9975 88.702 62.2103 87.8919 62.6073C87.3761 62.9365 86.9314 63.3656 86.5839 63.8693C86.2365 64.373 85.9934 64.9412 85.8689 65.5403C85.6301 66.7379 85.5538 67.9623 85.6419 69.1803C85.7479 73.1613 86.0419 76.5593 86.4739 80.5183C90.4289 82.8023 95.6379 83.8833 100.037 82.6293C100.179 77.4037 99.7685 72.1777 98.8129 67.0383C98.4469 65.2283 97.9149 63.2613 96.5219 62.0283Z" fill="white"/>
<path d="M108.476 72.2493C108.526 71.707 108.441 71.1608 108.228 70.6593C108.016 70.1578 107.683 69.7167 107.259 69.3753L99.9636 63.4843C98.9751 62.6857 97.7828 62.1796 96.5216 62.0233L95.8066 61.9683C95.1546 62.5683 94.8686 66.8803 97.8066 68.6293L104.149 72.3293L104.087 80.4783L101.917 82.9563C101.877 82.9994 101.849 83.0513 101.834 83.1075C101.819 83.1638 101.817 83.2228 101.83 83.2798C101.842 83.3368 101.867 83.39 101.904 83.4352C101.941 83.4803 101.988 83.516 102.042 83.5393C102.167 83.597 102.306 83.6182 102.443 83.6005C102.579 83.5828 102.708 83.5269 102.815 83.4393L103.515 82.8633C103.079 83.6842 102.697 84.6193 102.261 85.4293C102.152 85.5888 102.098 85.7794 102.107 85.9723C102.121 86.0538 102.154 86.131 102.202 86.1983C102.25 86.2655 102.313 86.3212 102.386 86.3613C102.529 86.4429 102.688 86.493 102.852 86.5083C103.425 86.5746 104.005 86.4702 104.52 86.2083C105.033 85.9481 105.486 85.5836 105.851 85.1383C106.549 84.2999 106.969 83.2644 107.051 82.1763C107.705 78.8956 108.181 75.5817 108.476 72.2493Z" fill="#FFA8A7"/>
<path d="M89.1788 60.475V61.135C89.1621 61.6185 89.0731 62.0968 88.9148 62.554C88.8487 62.7465 88.8487 62.9555 88.9148 63.148C88.9827 63.3097 89.0862 63.4541 89.2177 63.5703C89.3491 63.6864 89.505 63.7715 89.6738 63.819C90.0087 63.9088 90.3599 63.9201 90.6998 63.852C91.7171 63.6784 92.6409 63.1528 93.3098 62.367L93.1598 57.854L89.1788 60.475Z" fill="#FFA8A7"/>
<path opacity="0.2" d="M92.361 59.8149C92.684 59.2506 92.8911 58.6274 92.97 57.9819L89.18 60.4709V61.1309C89.1764 61.3241 89.158 61.5166 89.125 61.7069C89.6596 61.6142 90.1806 61.4553 90.676 61.2339C91.364 60.9354 91.9497 60.4421 92.361 59.8149Z" fill="black"/>
<path d="M84.9739 53.1541C84.5409 53.1682 84.1123 53.0632 83.7348 52.8506C83.3572 52.6379 83.0453 52.3258 82.8329 51.9481C82.8029 51.8927 82.7897 51.8296 82.7951 51.7668C82.8005 51.7039 82.8241 51.644 82.8632 51.5944C82.9022 51.5449 82.9549 51.5078 83.0147 51.4879C83.0746 51.4679 83.139 51.4659 83.1999 51.4821C83.4993 51.5352 83.8056 51.5352 84.1049 51.4821C83.7595 51.0325 83.5071 50.5186 83.3623 49.9704C83.2176 49.4222 83.1835 48.8507 83.2619 48.2891C83.271 48.2263 83.2948 48.1666 83.3316 48.1149C83.3683 48.0631 83.4168 48.0208 83.473 47.9915C83.5293 47.9622 83.5918 47.9467 83.6552 47.9463C83.7186 47.9459 83.7813 47.9606 83.8379 47.9891C85.0806 48.6054 86.4634 48.8847 87.8479 48.7991C88.5809 48.7481 89.3139 48.5901 90.0479 48.5351C90.7856 48.4437 91.5341 48.5579 92.2109 48.8651C92.552 49.0207 92.844 49.2665 93.0555 49.576C93.267 49.8855 93.3899 50.2469 93.4109 50.6211C93.4951 50.5015 93.6042 50.4016 93.7308 50.3282C93.8573 50.2549 93.9983 50.2098 94.1439 50.1961C94.296 50.1778 94.4502 50.1907 94.5971 50.2343C94.744 50.2778 94.8804 50.3509 94.9979 50.4491L93.7299 51.1491C93.9674 51.1023 94.2138 51.1351 94.4307 51.2425C94.6477 51.3499 94.8231 51.5259 94.9299 51.7431C95.1163 52.1696 95.197 52.6348 95.1649 53.0991C95.1888 53.7113 95.1616 54.3244 95.0839 54.9321C95.0008 55.5466 94.7596 56.1289 94.3839 56.6221C94.0537 57.0254 93.613 57.3235 93.1159 57.4801C92.4387 57.6693 91.7197 57.6463 91.0559 57.4141C90.3969 57.1843 89.7699 56.8714 89.1899 56.4831C87.6855 55.5051 86.2742 54.3907 84.9739 53.1541Z" fill="#263238"/>
<path d="M84.8936 51.9261C84.4688 54.4777 84.7503 57.0969 85.7076 59.5001C85.882 60.076 86.2447 60.5768 86.7376 60.9221C87.3146 61.1753 87.9595 61.2295 88.5706 61.0761C89.5752 60.9628 90.5547 60.6869 91.4706 60.2591C92.3941 59.824 93.1139 59.0491 93.4796 58.0961C93.8076 58.163 94.1479 58.1335 94.4595 58.0112C94.7711 57.889 95.0407 57.6792 95.2356 57.4071C95.6224 56.8423 95.8225 56.1705 95.8076 55.4861C95.8076 55.0531 95.7266 54.5401 95.3386 54.3501C95.1476 54.2917 94.9443 54.2865 94.7505 54.3349C94.5567 54.3834 94.3797 54.4837 94.2386 54.6251C93.7167 55.0448 93.3333 55.6122 93.1386 56.2531C92.8526 55.1941 92.4056 54.1711 92.1196 53.1151C92.0553 52.6856 91.8362 52.2944 91.5036 52.0151C91.0119 51.8114 90.4594 51.8114 89.9676 52.0151C88.2964 52.4185 86.5497 52.3879 84.8936 51.9261Z" fill="#FFA8A7"/>
<path d="M87.9767 55.1372L86.7417 57.2232L88.2157 57.4982L87.9767 55.1372Z" fill="#F28F8F"/>
<path d="M89.6376 58.2173L88.5156 58.7633C88.6117 58.8906 88.7467 58.9831 88.9001 59.0268C89.0535 59.0705 89.2169 59.0629 89.3656 59.0053C89.4953 58.9258 89.5933 58.8038 89.6429 58.66C89.6925 58.5163 89.6906 58.3598 89.6376 58.2173Z" fill="#F28F8F"/>
<path opacity="0.3" d="M89.6376 58.2173L88.5156 58.7633C88.6117 58.8906 88.7467 58.9831 88.9001 59.0268C89.0535 59.0705 89.2169 59.0629 89.3656 59.0053C89.4953 58.9258 89.5933 58.8038 89.6429 58.66C89.6925 58.5163 89.6906 58.3598 89.6376 58.2173Z" fill="black"/>
<path d="M88.978 59.0533C89.1085 59.0788 89.2436 59.0659 89.367 59.0163C89.4694 58.9582 89.5524 58.8713 89.6057 58.7664C89.6591 58.6615 89.6804 58.5432 89.667 58.4263C89.5069 58.4246 89.3512 58.4791 89.227 58.5803C89.1563 58.6387 89.0978 58.7107 89.0551 58.7918C89.0123 58.873 88.9861 58.9619 88.978 59.0533Z" fill="#F28F8F"/>
<path d="M90.107 55.2222C90.1182 55.3061 90.104 55.3915 90.0663 55.4674C90.0286 55.5433 89.9691 55.6061 89.8954 55.6479C89.8217 55.6897 89.7372 55.7085 89.6527 55.7019C89.5683 55.6954 89.4877 55.6637 89.4214 55.611C89.355 55.5583 89.306 55.487 89.2805 55.4062C89.255 55.3254 89.2542 55.2389 89.2782 55.1576C89.3022 55.0764 89.35 55.0042 89.4154 54.9503C89.4807 54.8964 89.5607 54.8633 89.645 54.8552C89.7549 54.8428 89.8652 54.8745 89.9518 54.9432C90.0384 55.012 90.0942 55.1123 90.107 55.2222Z" fill="#263238"/>
<path d="M86.562 55.4423C86.5777 55.5265 86.5676 55.6134 86.5331 55.6917C86.4986 55.77 86.4412 55.8361 86.3685 55.8813C86.2958 55.9264 86.2111 55.9486 86.1256 55.9448C86.0401 55.9411 85.9577 55.9116 85.8892 55.8602C85.8208 55.8089 85.7694 55.738 85.7418 55.657C85.7143 55.576 85.7119 55.4885 85.7349 55.406C85.7579 55.3236 85.8052 55.25 85.8707 55.1949C85.9363 55.1398 86.0169 55.1058 86.102 55.0973C86.208 55.0867 86.3141 55.1163 86.3992 55.1802C86.4844 55.2441 86.5425 55.3376 86.562 55.4423Z" fill="#263238"/>
<path d="M85.9829 53.8071L85.111 54.5401C85.0588 54.428 85.042 54.3027 85.0629 54.1808C85.0839 54.059 85.1414 53.9464 85.228 53.8581C85.3362 53.7794 85.4645 53.7328 85.5981 53.7238C85.7317 53.7148 85.865 53.7436 85.9829 53.8071Z" fill="#263238"/>
<path d="M89.5859 53.3891L90.5859 53.9431C90.6154 53.8235 90.6073 53.6977 90.5627 53.5829C90.5182 53.468 90.4393 53.3696 90.3369 53.3011C90.2156 53.2462 90.0815 53.2253 89.9492 53.2408C89.8169 53.2563 89.6913 53.3076 89.5859 53.3891Z" fill="#263238"/>
<path d="M89.8646 78.144C89.8688 78.0433 89.8601 77.9425 89.8386 77.844C89.7162 76.9987 89.3523 76.2066 88.7907 75.563C88.2291 74.9195 87.4936 74.4517 86.6726 74.216L81.2176 70.916L77.5516 69.083L76.0416 70.274C75.7018 70.5382 75.4469 70.8963 75.3086 71.304C75.1311 71.8482 75.1728 72.4401 75.4246 72.9542C75.6765 73.4682 76.1188 73.8638 76.6576 74.057L85.4576 77.157C86.033 77.7588 86.3982 78.5305 86.4986 79.357C86.5218 79.5996 86.5697 79.8392 86.6416 80.072C86.7647 80.3485 86.9741 80.5776 87.2384 80.7251C87.5027 80.8726 87.8077 80.9304 88.1076 80.89C88.4044 80.8447 88.6866 80.7307 88.9315 80.5571C89.1765 80.3835 89.3775 80.155 89.5186 79.89C89.7991 79.3533 89.9192 78.7471 89.8646 78.144Z" fill="#FFA8A7"/>
<path d="M86.925 74.2183V73.6863H86.536V73.8803L85.711 73.3993C85.6248 73.3492 85.5268 73.3228 85.427 73.3228C85.3273 73.3228 85.2293 73.3492 85.143 73.3993L83.761 74.1993V73.9683L83.394 74.0013V74.5253C83.3949 74.5586 83.4045 74.5911 83.4221 74.6194C83.4397 74.6477 83.4645 74.6708 83.494 74.6863L84.63 75.3463C84.7167 75.3951 84.8145 75.4208 84.914 75.4208C85.0135 75.4208 85.1113 75.3951 85.198 75.3463L86.866 74.3823C86.8935 74.3669 86.9164 74.3446 86.9326 74.3176C86.9487 74.2906 86.9575 74.2598 86.958 74.2283L86.925 74.2183Z" fill="#D27644"/>
<path d="M85.1247 72.9603L83.7137 73.7773C83.6884 73.7907 83.6672 73.8108 83.6525 73.8354C83.6377 73.86 83.6299 73.8881 83.6299 73.9168C83.6299 73.9454 83.6377 73.9736 83.6525 73.9982C83.6672 74.0227 83.6884 74.0428 83.7137 74.0563L84.6817 74.6133C84.755 74.6565 84.8386 74.6792 84.9237 74.6792C85.0088 74.6792 85.0924 74.6565 85.1657 74.6133L86.5807 73.7963C86.6052 73.7822 86.6256 73.7618 86.6397 73.7373C86.6539 73.7128 86.6613 73.6851 86.6613 73.6568C86.6613 73.6285 86.6539 73.6007 86.6397 73.5762C86.6256 73.5517 86.6052 73.5314 86.5807 73.5173L85.6097 72.9603C85.5363 72.9169 85.4525 72.894 85.3672 72.894C85.2819 72.894 85.1982 72.9169 85.1247 72.9603Z" fill="#D27644"/>
<path opacity="0.3" d="M86.925 74.2183V73.6863H86.536V73.8803L85.711 73.3993C85.6248 73.3492 85.5268 73.3228 85.427 73.3228C85.3273 73.3228 85.2293 73.3492 85.143 73.3993L83.761 74.1993V73.9683L83.394 74.0013V74.5253C83.3949 74.5586 83.4045 74.5911 83.4221 74.6194C83.4397 74.6477 83.4645 74.6708 83.494 74.6863L84.63 75.3463C84.7167 75.3951 84.8145 75.4208 84.914 75.4208C85.0135 75.4208 85.1113 75.3951 85.198 75.3463L86.866 74.3823C86.8935 74.3669 86.9164 74.3446 86.9326 74.3176C86.9487 74.2906 86.9575 74.2598 86.958 74.2283L86.925 74.2183Z" fill="black"/>
<path d="M85.1206 72.8719L83.4596 73.832C83.4307 73.8482 83.4066 73.8719 83.3899 73.9005C83.3731 73.9292 83.3643 73.9618 83.3643 73.9949C83.3643 74.0281 83.3731 74.0607 83.3899 74.0894C83.4066 74.118 83.4307 74.1417 83.4596 74.1579L84.6066 74.8139C84.6933 74.8627 84.7911 74.8884 84.8906 74.8884C84.9901 74.8884 85.0879 74.8627 85.1746 74.8139L86.8426 73.8499C86.8706 73.8329 86.8936 73.8089 86.9096 73.7804C86.9256 73.7519 86.9341 73.7197 86.9341 73.687C86.9341 73.6542 86.9256 73.622 86.9096 73.5935C86.8936 73.565 86.8706 73.541 86.8426 73.524L85.7066 72.8719C85.6183 72.8184 85.5169 72.79 85.4136 72.79C85.3103 72.79 85.2089 72.8184 85.1206 72.8719Z" fill="#D27644"/>
<path opacity="0.5" d="M85.1247 72.9603L83.7137 73.7773C83.6884 73.7907 83.6672 73.8108 83.6525 73.8354C83.6377 73.86 83.6299 73.8881 83.6299 73.9168C83.6299 73.9454 83.6377 73.9736 83.6525 73.9982C83.6672 74.0227 83.6884 74.0428 83.7137 74.0563L84.6817 74.6133C84.755 74.6565 84.8386 74.6792 84.9237 74.6792C85.0088 74.6792 85.0924 74.6565 85.1657 74.6133L86.5807 73.7963C86.6052 73.7822 86.6256 73.7618 86.6397 73.7373C86.6539 73.7128 86.6613 73.6851 86.6613 73.6568C86.6613 73.6285 86.6539 73.6007 86.6397 73.5762C86.6256 73.5517 86.6052 73.5314 86.5807 73.5173L85.6097 72.9603C85.5363 72.9169 85.4525 72.894 85.3672 72.894C85.2819 72.894 85.1982 72.9169 85.1247 72.9603Z" fill="white"/>
<path d="M84.4986 76.8159C84.3519 76.549 84.2834 76.2461 84.3011 75.942C84.3188 75.638 84.4219 75.345 84.5986 75.0969L83.4626 74.4409C83.3102 74.7454 83.225 75.079 83.2129 75.4193C83.2008 75.7596 83.2621 76.0984 83.3926 76.4129C83.4168 76.4709 83.4532 76.523 83.4995 76.5654C83.5458 76.6079 83.6008 76.6398 83.6606 76.6589C83.8806 76.7319 84.2506 76.8589 84.3936 76.9079C84.4374 76.9237 84.4842 76.9295 84.5305 76.925C84.5769 76.9205 84.6216 76.9058 84.6616 76.8819L84.4986 76.8159Z" fill="#455A64"/>
</svg>
