<svg width="166" height="153" viewBox="0 0 166 153" fill="none" xmlns="http://www.w3.org/2000/svg">
<path d="M82.666 152.981C128.321 152.981 165.332 131.614 165.332 105.256C165.332 78.8985 128.321 57.5312 82.666 57.5312C37.0108 57.5312 0 78.8985 0 105.256C0 131.614 37.0108 152.981 82.666 152.981Z" fill="#F0F0F0"/>
<path d="M32.7329 115.011C47.0459 115.011 58.6489 108.586 58.6489 100.661C58.6489 92.7357 47.0459 86.311 32.7329 86.311C18.4199 86.311 6.81689 92.7357 6.81689 100.661C6.81689 108.586 18.4199 115.011 32.7329 115.011Z" fill="#E0E0E0"/>
<path d="M16.8869 124.337L57.4999 147.778C57.7078 147.883 57.9372 147.937 58.1699 147.937C58.4026 147.937 58.632 147.883 58.8399 147.778L130.658 106.312C130.738 106.284 130.808 106.232 130.857 106.162C130.906 106.093 130.933 106.01 130.933 105.925C130.933 105.84 130.906 105.757 130.857 105.688C130.808 105.619 130.738 105.566 130.658 105.538L90.0449 82.0961C89.8377 81.9918 89.6089 81.9375 89.3769 81.9375C89.1449 81.9375 88.9161 81.9918 88.7089 82.0961L16.8869 123.563C16.8067 123.591 16.7371 123.644 16.6879 123.713C16.6387 123.782 16.6123 123.865 16.6123 123.95C16.6123 124.035 16.6387 124.118 16.6879 124.187C16.7371 124.257 16.8067 124.309 16.8869 124.337Z" fill="#E0E0E0"/>
<path d="M129.432 136.052C141.668 136.052 151.588 130.325 151.588 123.261C151.588 116.197 141.668 110.47 129.432 110.47C117.195 110.47 107.276 116.197 107.276 123.261C107.276 130.325 117.195 136.052 129.432 136.052Z" fill="#E0E0E0"/>
<path d="M35.2113 112.411C35.1353 112.411 35.0601 112.396 34.9899 112.367C34.9198 112.337 34.8561 112.295 34.8026 112.241C34.749 112.187 34.7067 112.123 34.678 112.053C34.6493 111.982 34.6347 111.907 34.6353 111.831V74.7689C34.6353 74.6161 34.696 74.4696 34.804 74.3616C34.912 74.2536 35.0585 74.1929 35.2113 74.1929C35.364 74.1929 35.5105 74.2536 35.6186 74.3616C35.7266 74.4696 35.7873 74.6161 35.7873 74.7689V111.831C35.7873 111.984 35.7267 112.131 35.6188 112.24C35.5109 112.348 35.3644 112.41 35.2113 112.411Z" fill="#455A64"/>
<path d="M58.1421 98.9179C58.0283 98.9189 57.9168 98.8865 57.8212 98.8249C57.7256 98.7632 57.6501 98.675 57.6041 98.5709L46.2391 69.8049C46.1888 69.6639 46.1953 69.5088 46.2572 69.3725C46.3192 69.2362 46.4317 69.1293 46.571 69.0744C46.7102 69.0195 46.8654 69.0209 47.0037 69.0782C47.142 69.1356 47.2526 69.2445 47.3121 69.3819L58.6771 98.1299C58.7116 98.2172 58.7243 98.3117 58.714 98.405C58.7038 98.4984 58.6708 98.5878 58.618 98.6655C58.5653 98.7432 58.4944 98.8068 58.4114 98.8508C58.3284 98.8948 58.236 98.9178 58.1421 98.9179Z" fill="#455A64"/>
<path d="M56.7743 95.4638C56.6962 95.4638 56.6189 95.4478 56.5472 95.4168C56.4755 95.3859 56.4108 95.3406 56.3573 95.2838L35.2073 72.9048L14.0993 95.1868C14.0479 95.244 13.9856 95.2903 13.9161 95.323C13.8465 95.3558 13.7711 95.3743 13.6943 95.3774C13.6175 95.3806 13.5408 95.3683 13.4688 95.3413C13.3968 95.3144 13.331 95.2733 13.2751 95.2205C13.2192 95.1677 13.1745 95.1043 13.1435 95.0339C13.1126 94.9635 13.096 94.8877 13.0948 94.8109C13.0936 94.734 13.1078 94.6577 13.1366 94.5864C13.1653 94.5151 13.2081 94.4503 13.2623 94.3958L34.7843 71.6688C34.8383 71.6117 34.9034 71.5663 34.9757 71.5353C35.0479 71.5044 35.1257 71.4885 35.2043 71.4888C35.2823 71.4889 35.3596 71.505 35.4313 71.5359C35.5029 71.5669 35.5676 71.6121 35.6213 71.6688L57.1873 94.4918C57.2392 94.5466 57.2798 94.6111 57.3067 94.6816C57.3336 94.7521 57.3463 94.8273 57.344 94.9028C57.3418 94.9782 57.3247 95.0525 57.2937 95.1213C57.2626 95.1901 57.2183 95.2521 57.1633 95.3038C57.059 95.4051 56.9197 95.4624 56.7743 95.4638Z" fill="#455A64"/>
<path d="M12.2811 98.9211C12.2084 98.921 12.1364 98.9067 12.0691 98.8791C11.9985 98.8519 11.934 98.8108 11.8793 98.7585C11.8246 98.7061 11.7809 98.6434 11.7506 98.5741C11.7203 98.5047 11.704 98.43 11.7027 98.3544C11.7014 98.2787 11.7152 98.2035 11.7431 98.1331L23.1081 69.3681C23.1341 69.2952 23.1745 69.2283 23.2268 69.1714C23.2792 69.1144 23.3425 69.0686 23.4129 69.0365C23.4834 69.0045 23.5596 68.987 23.6369 68.9851C23.7143 68.9831 23.7912 68.9967 23.8632 69.0251C23.9352 69.0535 24.0008 69.096 24.056 69.1503C24.1112 69.2045 24.1549 69.2692 24.1845 69.3407C24.2142 69.4122 24.2292 69.4889 24.2286 69.5663C24.228 69.6437 24.2119 69.7201 24.1811 69.7911L12.8151 98.5541C12.7732 98.6618 12.6998 98.7544 12.6046 98.8198C12.5094 98.8853 12.3967 98.9206 12.2811 98.9211Z" fill="#455A64"/>
<path d="M57.3569 94.5762L58.8569 98.5402C58.86 98.5734 58.86 98.6069 58.8569 98.6402V98.7132C58.8136 98.8206 58.7335 98.9092 58.6309 98.9632C58.489 99.035 58.3321 99.0725 58.1729 99.0725C58.0138 99.0725 57.8569 99.035 57.7149 98.9632C57.6359 98.9235 57.5732 98.8573 57.5379 98.7762V98.7242L56.1489 95.0062L57.3569 94.5762Z" fill="#D27644"/>
<path d="M13.0612 94.5762L11.5612 98.5402C11.558 98.5734 11.558 98.6069 11.5612 98.6402C11.5577 98.6644 11.5577 98.689 11.5612 98.7132C11.602 98.8222 11.6828 98.9116 11.7872 98.9632C11.9286 99.0351 12.085 99.0726 12.2437 99.0726C12.4024 99.0726 12.5588 99.0351 12.7002 98.9632C12.781 98.9258 12.8444 98.8589 12.8772 98.7762V98.7242L14.2862 95.0062L13.0612 94.5762Z" fill="#D27644"/>
<path d="M35.8754 108.967V112.247C35.8684 112.305 35.847 112.36 35.813 112.407C35.7791 112.455 35.7339 112.493 35.6814 112.518C35.5355 112.592 35.3744 112.631 35.2109 112.631C35.0474 112.631 34.8862 112.592 34.7404 112.518C34.6879 112.493 34.6426 112.455 34.6087 112.407C34.5748 112.36 34.5534 112.305 34.5464 112.247V108.967C34.7508 108.858 34.9791 108.801 35.2109 108.801C35.4427 108.801 35.6709 108.858 35.8754 108.967Z" fill="#D27644"/>
<path d="M56.9091 71.134C56.9091 70.263 56.1451 69.339 54.5351 68.295C51.5601 66.365 44.9161 62.495 40.7541 60.183C40.7526 60.1746 40.7483 60.1671 40.742 60.1614C40.7356 60.1558 40.7276 60.1525 40.7191 60.152C37.5191 58.208 34.5261 48.952 32.3121 41.918C31.5551 39.518 30.6321 38.162 29.5351 37.524C29.2751 37.375 28.3131 36.847 28.0981 36.719C25.9251 35.414 23.0681 36.979 19.5141 38.927C16.2371 40.718 13.6791 43.013 13.1651 49.104C12.9111 54.5025 13.1575 59.9129 13.9011 65.266C14.9911 74.239 16.3311 74.253 18.2711 75.752C21.6201 78.344 29.1501 81.968 32.3331 83.204C38.0881 85.467 42.7951 81.975 46.3011 80.243C49.5154 78.6198 52.6185 76.7855 55.5901 74.752C55.953 74.5567 56.263 74.2762 56.4934 73.9346C56.7239 73.593 56.8679 73.2005 56.9131 72.791C56.9021 72.523 56.9091 71.419 56.9091 71.134Z" fill="#D27644"/>
<path opacity="0.25" d="M56.9091 71.134C56.9091 70.263 56.1451 69.339 54.5351 68.295C51.5601 66.365 44.9161 62.495 40.7541 60.183C40.7526 60.1746 40.7483 60.1671 40.742 60.1614C40.7356 60.1558 40.7276 60.1525 40.7191 60.152C37.5191 58.208 34.5261 48.952 32.3121 41.918C31.5551 39.518 30.6321 38.162 29.5351 37.524C29.2751 37.375 28.3131 36.847 28.0981 36.719C25.9251 35.414 23.0681 36.979 19.5141 38.927C16.2371 40.718 13.6791 43.013 13.1651 49.104C12.9111 54.5025 13.1575 59.9129 13.9011 65.266C14.9911 74.239 16.3311 74.253 18.2711 75.752C21.6201 78.344 29.1501 81.968 32.3331 83.204C38.0881 85.467 42.7951 81.975 46.3011 80.243C49.5154 78.6198 52.6185 76.7855 55.5901 74.752C55.953 74.5567 56.263 74.2762 56.4934 73.9346C56.7239 73.593 56.8679 73.2005 56.9131 72.791C56.9021 72.523 56.9091 71.419 56.9091 71.134Z" fill="black"/>
<path d="M29.4072 37.4538C27.2512 36.3218 24.4502 37.8598 20.9862 39.7538C18.6475 40.8505 16.7811 42.7515 15.7272 45.1098L14.2832 44.2678C15.3366 41.917 17.1989 40.0224 19.5312 38.9288C23.0892 36.9818 25.9422 35.4158 28.1192 36.7208L29.4072 37.4538Z" fill="#D27644"/>
<path d="M54.5492 68.2989C52.6192 67.0459 52.5772 66.7269 40.6642 60.1279C40.6842 60.1326 40.7031 60.1407 40.7202 60.1519C37.5202 58.2009 34.5342 48.9519 32.3202 41.9209C30.0672 34.7769 26.3152 36.8459 20.9942 39.7619C17.7102 41.5499 15.1522 43.8479 14.6312 49.9389C14.1102 56.0299 15.2382 71.1129 17.3182 72.9529C19.5852 75.4589 28.6832 80.1169 32.3182 81.5479C38.0732 83.8109 42.7802 80.3189 46.2862 78.5869C49.5064 76.9614 52.6153 75.124 55.5922 73.0869C57.5792 71.6339 57.3952 70.1519 54.5492 68.2989Z" fill="#D27644"/>
<g opacity="0.1">
<path d="M20.9861 39.7629C26.3071 36.8469 30.0601 34.7779 32.3121 41.9219C34.5271 48.9549 37.5191 58.2119 40.7191 60.1559C40.7191 60.1559 35.2241 60.1559 27.2651 64.4499C18.9901 68.9169 17.7271 73.2879 17.3501 72.9779C15.2671 71.2419 14.1221 56.0319 14.6391 49.9429C15.1561 43.8539 17.7101 41.5509 20.9861 39.7629Z" fill="black"/>
</g>
<path d="M58.2079 100.595L21.7539 79.5491L82.6419 44.4141L119.092 65.4641L58.2079 100.595Z" fill="#455A64"/>
<path d="M21.7539 79.5488V121.64L23.6739 122.747V93.9468L56.2889 112.779V141.579L58.2089 142.686V100.595L21.7539 79.5488Z" fill="#263238"/>
<path d="M23.6738 122.747L25.5938 121.64V95.0543L23.6738 93.9473V122.747Z" fill="black"/>
<path d="M58.208 142.686L60.128 141.58V112.78L117.176 79.863V108.663L119.092 107.556V65.46L58.208 100.595V142.686Z" fill="#37474F"/>
<path d="M117.177 108.662L115.258 107.555V80.9688L117.177 79.8618V108.662Z" fill="#263238"/>
<g opacity="0.2">
<path d="M54.898 92.2922C53.034 93.3652 53.034 95.1072 54.898 96.1832C55.942 96.713 57.0963 96.9891 58.267 96.9891C59.4377 96.9891 60.592 96.713 61.636 96.1832C63.514 95.1102 63.497 93.3642 61.636 92.2922C60.592 91.7624 59.4377 91.4863 58.267 91.4863C57.0963 91.4863 55.942 91.7624 54.898 92.2922Z" fill="black"/>
</g>
<g opacity="0.2">
<path d="M27.9819 79.5249L41.3599 87.2549C41.4763 87.3148 41.6054 87.346 41.7364 87.346C41.8673 87.346 41.9964 87.3148 42.1129 87.2549L51.9679 81.5659C52.0133 81.5505 52.0527 81.5214 52.0807 81.4824C52.1087 81.4435 52.1237 81.3968 52.1237 81.3488C52.1237 81.3009 52.1087 81.2542 52.0807 81.2153C52.0527 81.1763 52.0133 81.1471 51.9679 81.1318L38.5829 73.3978C38.4658 73.3398 38.337 73.3096 38.2064 73.3096C38.0757 73.3096 37.9469 73.3398 37.8299 73.3978L27.9749 79.0909C27.7729 79.2099 27.7729 79.4039 27.9819 79.5249Z" fill="black"/>
</g>
<g opacity="0.2">
<path d="M27.9807 80.9052L41.3587 88.6352C41.4752 88.6952 41.6042 88.7264 41.7352 88.7264C41.8662 88.7264 41.9952 88.6952 42.1117 88.6352L51.9667 82.9462C52.1747 82.8242 52.1747 82.6302 51.9667 82.5122L38.5817 74.7782C38.4647 74.7202 38.3358 74.6899 38.2052 74.6899C38.0746 74.6899 37.9457 74.7202 37.8287 74.7782L27.9807 80.4672C27.9361 80.4838 27.8976 80.5136 27.8704 80.5526C27.8432 80.5917 27.8286 80.6381 27.8286 80.6857C27.8286 80.7333 27.8432 80.7798 27.8704 80.8188C27.8976 80.8579 27.9361 80.8877 27.9807 80.9042V80.9052Z" fill="black"/>
</g>
<path d="M27.9807 80.455L41.3587 88.185C41.4752 88.245 41.6043 88.2763 41.7352 88.2763C41.8662 88.2763 41.9953 88.245 42.1117 88.185L51.9797 82.51C52.1877 82.388 52.1877 82.194 51.9797 82.076L38.5797 74.328C38.4627 74.27 38.3339 74.2397 38.2032 74.2397C38.0726 74.2397 37.9438 74.27 37.8267 74.328L27.9787 80.017C27.9341 80.0336 27.8956 80.0634 27.8684 80.1024C27.8412 80.1415 27.8267 80.1879 27.8267 80.2355C27.8267 80.2831 27.8412 80.3296 27.8684 80.3687C27.8956 80.4077 27.9341 80.4375 27.9787 80.454L27.9807 80.455Z" fill="#EBEBEB"/>
<path d="M37.836 74.3282L28.478 79.7282L41.359 87.1743C41.476 87.2323 41.6049 87.2625 41.7355 87.2625C41.8662 87.2625 41.995 87.2323 42.112 87.1743L51.484 81.7743L38.584 74.3282C38.4677 74.271 38.3397 74.2412 38.21 74.2412C38.0803 74.2412 37.9524 74.271 37.836 74.3282Z" fill="#E0E0E0"/>
<path d="M27.9807 79.0941L41.3587 86.8241C41.4752 86.884 41.6043 86.9152 41.7352 86.9152C41.8662 86.9152 41.9953 86.884 42.1117 86.8241L51.9807 81.1241C52.0254 81.1075 52.0639 81.0777 52.091 81.0387C52.1182 80.9996 52.1328 80.9531 52.1328 80.9055C52.1328 80.858 52.1182 80.8115 52.091 80.7725C52.0639 80.7334 52.0254 80.7036 51.9807 80.6871L38.5807 72.9711C38.4643 72.9111 38.3352 72.8799 38.2042 72.8799C38.0733 72.8799 37.9442 72.9111 37.8277 72.9711L27.9797 78.6601C27.9351 78.6766 27.8966 78.7064 27.8694 78.7455C27.8422 78.7845 27.8276 78.831 27.8276 78.8786C27.8276 78.9261 27.8422 78.9726 27.8694 79.0117C27.8966 79.0507 27.9351 79.0805 27.9797 79.0971L27.9807 79.0941Z" fill="#FAFAFA"/>
<g opacity="0.2">
<path d="M43.0947 72.6522L50.3317 76.8422C50.4694 76.9123 50.6217 76.9489 50.7762 76.9489C50.9307 76.9489 51.083 76.9123 51.2207 76.8422L74.5777 63.3502C74.6316 63.3322 74.6784 63.2976 74.7116 63.2515C74.7448 63.2054 74.7627 63.15 74.7627 63.0932C74.7627 63.0364 74.7448 62.981 74.7116 62.9349C74.6784 62.8887 74.6316 62.8542 74.5777 62.8362L67.3437 58.6462C67.2055 58.5761 67.0527 58.5396 66.8977 58.5396C66.7427 58.5396 66.5899 58.5761 66.4517 58.6462L43.0947 72.1382C43.0408 72.1562 42.9939 72.1907 42.9607 72.2368C42.9275 72.283 42.9097 72.3384 42.9097 72.3952C42.9097 72.452 42.9275 72.5074 42.9607 72.5535C42.9939 72.5996 43.0408 72.6342 43.0947 72.6522Z" fill="black"/>
</g>
<path d="M43.3447 71.6698V71.5058C43.3544 71.3663 43.3965 71.2309 43.4677 71.1104C43.5389 70.9899 43.6371 70.8877 43.7547 70.8118L65.1997 58.4198C65.3265 58.3551 65.4668 58.3213 65.6092 58.3213C65.7516 58.3213 65.8919 58.3551 66.0187 58.4198L72.6627 62.2658C72.7798 62.3422 72.8777 62.4445 72.9489 62.5649C73.02 62.6853 73.0624 62.8204 73.0727 62.9598V63.1228C73.063 63.2624 73.0209 63.3978 72.9498 63.5183C72.8786 63.6388 72.7803 63.741 72.6627 63.8168L51.2177 76.2058C51.0909 76.2706 50.9506 76.3044 50.8082 76.3044C50.6659 76.3044 50.5255 76.2706 50.3987 76.2058L43.7547 72.3738C43.6363 72.2965 43.5376 72.1926 43.4664 72.0703C43.3953 71.9481 43.3536 71.811 43.3447 71.6698Z" fill="#E0E0E0"/>
<path d="M43.754 71.2702L50.384 75.1162C50.5112 75.1794 50.6514 75.2123 50.7935 75.2123C50.9356 75.2123 51.0757 75.1794 51.203 75.1162L72.662 62.7242C72.7109 62.7071 72.7533 62.6752 72.7833 62.6329C72.8133 62.5906 72.8295 62.54 72.8295 62.4882C72.8295 62.4363 72.8133 62.3858 72.7833 62.3435C72.7533 62.3012 72.7109 62.2693 72.662 62.2522L66.004 58.4062C65.8772 58.3414 65.7368 58.3076 65.5945 58.3076C65.4521 58.3076 65.3117 58.3414 65.185 58.4062L43.74 70.7982C43.6915 70.8167 43.6499 70.8498 43.6211 70.893C43.5923 70.9362 43.5777 70.9873 43.5792 71.0392C43.5808 71.091 43.5984 71.1412 43.6297 71.1826C43.661 71.224 43.7045 71.2546 43.754 71.2702Z" fill="#FAFAFA"/>
<path d="M61.348 94.5139C62.99 92.8369 63.955 88.648 62.348 87.314H54.201C52.601 88.643 53.562 92.83 55.201 94.506L55.246 94.555L55.302 94.611L55.451 94.743L55.489 94.774L55.614 94.868C55.683 94.917 55.756 94.962 55.826 95.003C56.5852 95.3884 57.4246 95.5893 58.276 95.5893C59.1274 95.5893 59.9668 95.3884 60.726 95.003C60.7995 94.9611 60.8703 94.9147 60.938 94.864L61.056 94.7769L61.105 94.739C61.154 94.697 61.205 94.656 61.247 94.611L61.313 94.549L61.348 94.5139Z" fill="#EBEBEB"/>
<path d="M54.897 86.7818C53.033 87.8548 53.033 89.5968 54.897 90.6728C55.941 91.2026 57.0953 91.4787 58.266 91.4787C59.4368 91.4787 60.591 91.2026 61.635 90.6728C63.513 89.5998 63.496 87.8538 61.635 86.7818C60.591 86.2521 59.4368 85.9761 58.266 85.9761C57.0953 85.9761 55.9411 86.2521 54.897 86.7818Z" fill="#FAFAFA"/>
<path d="M56.2227 87.5433C55.9755 87.6273 55.7608 87.7866 55.6088 87.9989C55.4568 88.2111 55.375 88.4657 55.375 88.7268C55.375 88.9879 55.4568 89.2424 55.6088 89.4547C55.7608 89.6669 55.9755 89.8263 56.2227 89.9103C56.8576 90.2341 57.5601 90.4029 58.2727 90.4029C58.9854 90.4029 59.6879 90.2341 60.3227 89.9103C60.5699 89.8263 60.7846 89.6669 60.9366 89.4547C61.0887 89.2424 61.1704 88.9879 61.1704 88.7268C61.1704 88.4657 61.0887 88.2111 60.9366 87.9989C60.7846 87.7866 60.5699 87.6273 60.3227 87.5433C59.6873 87.2214 58.985 87.0537 58.2727 87.0537C57.5604 87.0537 56.8581 87.2214 56.2227 87.5433Z" fill="#EBEBEB"/>
<path d="M60.3218 88.6673C59.6864 88.3455 58.9841 88.1777 58.2718 88.1777C57.5595 88.1777 56.8572 88.3455 56.2218 88.6673C56.1347 88.658 56.0465 88.6672 55.9631 88.6942C55.8798 88.7212 55.803 88.7655 55.7378 88.8241C55.6727 88.8827 55.6205 88.9544 55.5849 89.0344C55.5492 89.1145 55.5308 89.2011 55.5308 89.2888C55.5308 89.3764 55.5492 89.4631 55.5849 89.5432C55.6205 89.6232 55.6727 89.6949 55.7378 89.7535C55.803 89.8121 55.8798 89.8563 55.9631 89.8834C56.0465 89.9104 56.1347 89.9196 56.2218 89.9103C56.8567 90.2341 57.5592 90.4029 58.2718 90.4029C58.9845 90.4029 59.687 90.2341 60.3218 89.9103C60.409 89.9196 60.4971 89.9104 60.5805 89.8834C60.6639 89.8563 60.7406 89.8121 60.8058 89.7535C60.871 89.6949 60.9231 89.6232 60.9588 89.5432C60.9944 89.4631 61.0129 89.3764 61.0129 89.2888C61.0129 89.2011 60.9944 89.1145 60.9588 89.0344C60.9231 88.9544 60.871 88.8827 60.8058 88.8241C60.7406 88.7655 60.6639 88.7212 60.5805 88.6942C60.4971 88.6672 60.409 88.658 60.3218 88.6673Z" fill="#E0E0E0"/>
<path d="M56.4728 89.289C55.8931 88.7007 55.3947 88.0375 54.9908 87.317C54.2968 86.106 54.1788 84.485 54.5328 84.283C54.8868 84.081 56.3268 85.701 56.3268 85.701C56.1938 85.0152 56.1424 84.3159 56.1738 83.618C56.1354 82.8175 56.3571 82.026 56.8058 81.362C57.1148 81.162 57.8058 82.525 58.1058 83.511C58.4058 84.497 58.5778 85.311 58.5778 85.311C58.6982 84.5422 58.8757 83.7834 59.1088 83.041C59.4558 82.017 59.8028 81.784 60.0498 81.889C60.2968 81.994 60.4698 82.465 60.5428 83.829C60.5698 84.48 60.5491 85.1321 60.4808 85.78C60.4808 85.78 60.9908 85.221 61.5538 84.68C62.1748 84.086 62.4388 83.986 62.6158 84.118C62.7928 84.25 62.8418 85.159 61.8838 86.895C61.4067 87.7789 60.7954 88.5834 60.0718 89.28C59.5115 89.5531 58.8967 89.6958 58.2734 89.6974C57.65 89.6989 57.0345 89.5593 56.4728 89.289Z" fill="#D27644"/>
<path d="M92.038 69.4593L93.7741 48.5493C93.7918 48.21 93.7215 47.8719 93.5702 47.5678C93.4188 47.2636 93.1914 47.0037 92.9101 46.8133C92.6007 46.6631 92.2602 46.588 91.9164 46.5941C91.5725 46.6002 91.2349 46.6873 90.9311 46.8483L68.0211 60.0663C67.7191 60.2636 67.463 60.5235 67.2701 60.8284C67.0773 61.1332 66.9521 61.4759 66.9031 61.8333L65.1671 82.7403C65.15 83.0792 65.2202 83.4167 65.3709 83.7207C65.5217 84.0247 65.748 84.2848 66.0281 84.4763C66.3382 84.626 66.6793 84.7005 67.0236 84.6939C67.3679 84.6873 67.7058 84.5997 68.0101 84.4383L90.9201 71.2203C91.221 71.0233 91.4764 70.7642 91.6692 70.4605C91.862 70.1568 91.9878 69.8155 92.038 69.4593Z" fill="#D27644"/>
<path opacity="0.5" d="M92.038 69.4593L93.7741 48.5493C93.7918 48.21 93.7215 47.8719 93.5702 47.5678C93.4188 47.2636 93.1914 47.0037 92.9101 46.8133C92.6007 46.6631 92.2602 46.588 91.9164 46.5941C91.5725 46.6002 91.2349 46.6873 90.9311 46.8483L68.0211 60.0663C67.7191 60.2636 67.463 60.5235 67.2701 60.8284C67.0773 61.1332 66.9521 61.4759 66.9031 61.8333L65.1671 82.7403C65.15 83.0792 65.2202 83.4167 65.3709 83.7207C65.5217 84.0247 65.748 84.2848 66.0281 84.4763C66.3382 84.626 66.6793 84.7005 67.0236 84.6939C67.3679 84.6873 67.7058 84.5997 68.0101 84.4383L90.9201 71.2203C91.221 71.0233 91.4764 70.7642 91.6692 70.4605C91.862 70.1568 91.9878 69.8155 92.038 69.4593Z" fill="white"/>
<path d="M92.0378 69.4593L93.7738 48.5493C93.7916 48.21 93.7213 47.8719 93.57 47.5678C93.4186 47.2636 93.1912 47.0037 92.9098 46.8133C92.6004 46.6631 92.26 46.588 91.9162 46.5941C91.5723 46.6002 91.2347 46.6873 90.9308 46.8483L68.0208 60.0663C67.7181 60.2549 67.4636 60.5118 67.2778 60.8163L70.8358 62.8713V82.8093L90.9198 71.2153C91.2202 71.0188 91.4753 70.7605 91.668 70.4578C91.8608 70.155 91.9869 69.8146 92.0378 69.4593Z" fill="#D27644"/>
<path opacity="0.8" d="M92.0378 69.4593L93.7738 48.5493C93.7916 48.21 93.7213 47.8719 93.57 47.5678C93.4186 47.2636 93.1912 47.0037 92.9098 46.8133C92.6004 46.6631 92.26 46.588 91.9162 46.5941C91.5723 46.6002 91.2347 46.6873 90.9308 46.8483L68.0208 60.0663C67.7181 60.2549 67.4636 60.5118 67.2778 60.8163L70.8358 62.8713V82.8093L90.9198 71.2153C91.2202 71.0188 91.4753 70.7605 91.668 70.4578C91.8608 70.155 91.9869 69.8146 92.0378 69.4593Z" fill="white"/>
<path d="M67.0869 83.8549L68.8229 62.9549C68.8717 62.5975 68.9968 62.2547 69.1897 61.9499C69.3826 61.645 69.6388 61.3851 69.9409 61.1879L92.8509 47.9659C93.4169 47.6399 93.8299 47.9039 93.7779 48.5529L92.0419 69.4629C91.9924 69.8202 91.867 70.1627 91.6742 70.4675C91.4814 70.7723 91.2255 71.0323 90.9239 71.2299L68.0139 84.4479C67.4479 84.7699 67.0459 84.5059 67.0869 83.8549Z" fill="#D27644"/>
<path opacity="0.65" d="M67.0869 83.8549L68.8229 62.9549C68.8717 62.5975 68.9968 62.2547 69.1897 61.9499C69.3826 61.645 69.6388 61.3851 69.9409 61.1879L92.8509 47.9659C93.4169 47.6399 93.8299 47.9039 93.7779 48.5529L92.0419 69.4629C91.9924 69.8202 91.867 70.1627 91.6742 70.4675C91.4814 70.7723 91.2255 71.0323 90.9239 71.2299L68.0139 84.4479C67.4479 84.7699 67.0459 84.5059 67.0869 83.8549Z" fill="white"/>
<path d="M78.9031 67.0812C78.967 66.5198 79.1495 65.9785 79.4387 65.4932C79.7278 65.0078 80.1169 64.5896 80.5801 64.2662C81.4171 63.7802 82.0241 64.2662 81.9341 65.3252C81.8698 65.8864 81.6874 66.4277 81.3991 66.9136C81.1108 67.3994 80.723 67.8188 80.2611 68.1442C79.4241 68.6292 78.8171 68.1532 78.9031 67.0812Z" fill="#D27644"/>
<path d="M79.4418 73.4021L85.0718 70.1321L84.1138 69.5801L78.4868 72.8501L79.4418 73.4021Z" fill="#D27644"/>
<g opacity="0.85">
<path d="M79.4418 73.4021L85.0718 70.1321L84.1138 69.5801L78.4868 72.8501L79.4418 73.4021Z" fill="white"/>
</g>
<path d="M87.6847 79.7328L80.8327 83.6898C80.6974 83.7623 80.545 83.7969 80.3917 83.7898C80.2626 83.7866 80.1358 83.7545 80.0207 83.6958L77.0047 81.9598H76.9847C76.871 81.8817 76.7768 81.7785 76.7094 81.6582C76.6419 81.5378 76.603 81.4036 76.5957 81.2658V81.1058C76.5957 80.8458 76.7727 80.7378 77.0017 80.8698L78.8237 81.9108L79.2297 82.1468L79.1397 81.6848L78.5007 72.8468L79.4557 73.4018L85.0857 70.1318L88.0047 79.0318C88.0239 79.167 88.0039 79.3049 87.9472 79.4291C87.8905 79.5534 87.7994 79.6587 87.6847 79.7328Z" fill="#D27644"/>
<g opacity="0.5">
<path d="M87.6847 79.7328L80.8327 83.6898C80.6974 83.7623 80.545 83.7969 80.3917 83.7898C80.2626 83.7866 80.1358 83.7545 80.0207 83.6958L77.0047 81.9598H76.9847C76.871 81.8817 76.7768 81.7785 76.7094 81.6582C76.6419 81.5378 76.603 81.4036 76.5957 81.2658V81.1058C76.5957 80.8458 76.7727 80.7378 77.0017 80.8698L78.8237 81.9108L79.2297 82.1468L79.1397 81.6848L78.5007 72.8468L79.4557 73.4018L85.0857 70.1318L88.0047 79.0318C88.0239 79.167 88.0039 79.3049 87.9472 79.4291C87.8905 79.5534 87.7994 79.6587 87.6847 79.7328Z" fill="white"/>
</g>
<path d="M76.709 80.8051L79.045 79.4551L79.521 82.6031L76.709 80.8051Z" fill="#D27644"/>
<g opacity="0.25">
<path d="M76.709 80.8051L79.045 79.4551L79.521 82.6031L76.709 80.8051Z" fill="black"/>
</g>
<path d="M79.441 73.4051L78.486 72.8501L79.128 81.6631C79.18 81.9161 79.034 82.0101 78.812 81.8891L76.99 80.8481C76.761 80.7161 76.584 80.8241 76.584 81.0841V81.2441C76.5913 81.3818 76.6302 81.5161 76.6976 81.6364C76.7651 81.7568 76.8593 81.86 76.973 81.9381H76.99L80.006 83.6741C80.1211 83.7328 80.2478 83.7649 80.377 83.7681L79.441 73.4051Z" fill="#D27644"/>
<g opacity="0.25">
<path d="M79.441 73.4051L78.486 72.8501L79.128 81.6631C79.18 81.9161 79.034 82.0101 78.812 81.8891L76.99 80.8481C76.761 80.7161 76.584 80.8241 76.584 81.0841V81.2441C76.5913 81.3818 76.6302 81.5161 76.6976 81.6364C76.7651 81.7568 76.8593 81.86 76.973 81.9381H76.99L80.006 83.6741C80.1211 83.7328 80.2478 83.7649 80.377 83.7681L79.441 73.4051Z" fill="white"/>
</g>
<path opacity="0.2" d="M53.8027 79.184L54.8577 79.791L63.1817 74.918L64.1017 73.835L62.1857 74.342L53.8027 79.184Z" fill="black"/>
<path d="M62.2617 73.6029L64.0357 73.2559C64.0468 73.2544 64.0581 73.2561 64.0681 73.261C64.0782 73.2659 64.0866 73.2737 64.0921 73.2834C64.0977 73.293 64.1003 73.3042 64.0995 73.3153C64.0987 73.3265 64.0946 73.3371 64.0877 73.3459L62.8797 74.7069L62.2617 73.6029Z" fill="#FFA8A7"/>
<path d="M64.088 73.3459C64.0949 73.3371 64.099 73.3265 64.0998 73.3153C64.1006 73.3042 64.098 73.293 64.0924 73.2834C64.0868 73.2737 64.0784 73.2659 64.0684 73.261C64.0583 73.2561 64.047 73.2544 64.036 73.2559L63.689 73.3219C63.737 73.3513 63.7758 73.3936 63.8009 73.444C63.826 73.4944 63.8364 73.5509 63.831 73.6069V73.6379L64.088 73.3459Z" fill="#263238"/>
<path d="M56.2845 78.4971L56.4305 78.4141L56.6075 78.3141L62.8795 74.7041C62.9384 74.5093 62.9209 74.2994 62.8305 74.1171C62.7838 73.9911 62.7073 73.8782 62.6075 73.7882C62.5077 73.6982 62.3876 73.6337 62.2575 73.6001L55.9715 77.2071L55.6245 77.3981C55.8645 77.3031 56.4925 78.3831 56.2845 78.4971Z" fill="#D27644"/>
<path d="M56.8265 78.185L57.1495 77.998C57.2435 77.946 57.1915 77.713 57.0765 77.47C56.9305 77.147 56.6395 76.835 56.5105 76.901L56.2745 77.04L56.1875 77.089C56.3155 77.023 56.6075 77.335 56.7535 77.658C56.8615 77.891 56.9165 78.116 56.8335 78.179L56.8265 78.185Z" fill="#EBEBEB"/>
<path d="M56.9068 78.1358C57.1288 78.0178 56.4938 76.9208 56.2678 77.0358L55.9448 77.2228C56.1668 77.1048 56.8018 78.2018 56.5798 78.3228L56.9068 78.1358Z" fill="#D27644"/>
<path d="M56.2845 78.4978L56.6075 78.3168C56.8265 78.2018 56.2185 77.1399 55.9895 77.2099L55.6665 77.3969C55.8645 77.3039 56.4925 78.3858 56.2845 78.4978Z" fill="#EBEBEB"/>
<path opacity="0.15" d="M64.0959 73.2839L64.0369 73.2559L62.7489 73.9499L56.0949 77.7679C56.0949 77.7469 56.0739 77.7469 56.0669 77.7679C56.2539 78.0679 56.3969 78.4339 56.2669 78.4969L56.4129 78.4139L56.5899 78.3139L62.8759 74.7039L64.0759 73.3429C64.0844 73.3359 64.0908 73.3266 64.0943 73.3162C64.0978 73.3058 64.0984 73.2946 64.0959 73.2839Z" fill="black"/>
<path d="M54.9136 79.2777L56.2706 78.4967C56.3706 78.4477 56.3156 78.2157 56.2046 77.9757C56.0586 77.6497 55.7676 77.3367 55.6386 77.3997L54.2746 78.1807C54.0036 78.3367 54.2536 78.9267 54.5556 79.1877C54.5989 79.2375 54.6565 79.2728 54.7205 79.2889C54.7845 79.305 54.8519 79.3011 54.9136 79.2777Z" fill="#F28F8F"/>
<path opacity="0.1" d="M54.9937 78.8548C54.9596 78.7077 54.8917 78.5705 54.7954 78.4542C54.699 78.338 54.5769 78.2457 54.4387 78.1848C54.4058 78.1721 54.3701 78.168 54.3351 78.1729C54.3001 78.1778 54.267 78.1915 54.2387 78.2128C54.0387 78.3998 54.2697 78.9418 54.5577 79.1878C54.6002 79.2354 54.6559 79.2693 54.7176 79.2854C54.7794 79.3014 54.8445 79.2987 54.9047 79.2778C55.0067 79.2198 55.0457 79.0628 54.9937 78.8548Z" fill="black"/>
<path d="M103.162 14.41C103.095 14.3728 103.02 14.3535 102.943 14.354H98.9749L97.3369 15.298V20.966L98.9749 20.032L100.388 18.401V22.393L102.026 21.449L106.316 16.832C106.357 16.7835 106.387 16.7265 106.404 16.665C106.421 16.6035 106.425 16.539 106.414 16.4762C106.404 16.4133 106.379 16.3534 106.343 16.3009C106.307 16.2484 106.26 16.2044 106.205 16.172L103.162 14.41Z" fill="#455A64"/>
<path d="M100.4 22.3894L102.038 21.4454L106.328 16.8284C106.383 16.7654 106.418 16.6879 106.43 16.6053C106.442 16.5226 106.43 16.4382 106.395 16.3623C106.36 16.2864 106.304 16.2222 106.234 16.1773C106.163 16.1325 106.081 16.1089 105.998 16.1094H102.037L100.399 17.0574L100.4 22.3894Z" fill="#37474F"/>
<path d="M102.049 11.4282C102.02 10.8832 101.862 10.3528 101.59 9.88007C101.317 9.4073 100.937 9.00547 100.48 8.7072C99.9927 8.45961 99.4539 8.33057 98.9073 8.33057C98.3608 8.33057 97.8221 8.45961 97.3349 8.7072L85.3909 15.5482C84.9326 15.8464 84.5512 16.2487 84.2779 16.7222C84.0045 17.1958 83.8469 17.7272 83.8179 18.2732V31.1732C83.8475 31.7185 84.0054 32.2491 84.2787 32.7219C84.5521 33.1947 84.9331 33.5964 85.3909 33.8942C85.8781 34.1418 86.4169 34.2708 86.9634 34.2708C87.5099 34.2708 88.0487 34.1418 88.5359 33.8942L100.63 26.9522C101.123 26.735 101.531 26.3604 101.789 25.8869C102.048 25.4135 102.142 24.8678 102.057 24.3352L102.049 11.4282Z" fill="#37474F"/>
<path d="M83.8179 31.1681C83.8475 31.7134 84.0054 32.2441 84.2787 32.7169C84.5521 33.1897 84.9331 33.5913 85.3909 33.8891C85.8343 34.1123 86.3199 34.2393 86.8158 34.2621C87.3117 34.2848 87.8068 34.2027 88.2689 34.0211C87.5299 34.2991 86.9639 33.8751 86.9639 32.9801V20.0841C86.9836 19.5372 87.1426 19.0044 87.4259 18.5361L84.2809 16.7241C83.9987 17.1926 83.841 17.7255 83.8229 18.2721L83.8179 31.1681Z" fill="#263238"/>
<path d="M101.999 11.0042C101.815 10.3342 101.204 10.1222 100.479 10.5422L88.5308 17.3632C88.0655 17.6506 87.6838 18.0551 87.4238 18.5362L84.2998 16.7282C84.5604 16.2465 84.9419 15.8408 85.4068 15.5512L97.3478 8.71323C97.8359 8.46678 98.375 8.33838 98.9218 8.33838C99.4686 8.33838 100.008 8.46678 100.496 8.71323C100.889 8.97313 101.225 9.31028 101.483 9.70415C101.741 10.098 101.917 10.5404 101.999 11.0042Z" fill="#455A64"/>
<path d="M96.0719 26.9924L93.2529 28.6204V17.3394L96.0719 15.7114V26.9924Z" fill="#D27644"/>
<path d="M98.8931 17.8423V21.6013L90.4341 26.4853V22.7263L98.8931 17.8423Z" fill="#D27644"/>
<path d="M127.566 27.21C130.343 27.286 131.131 28.397 132.804 30.789C134.477 33.181 140.17 42.244 140.17 42.244L148.234 45.344L147.172 50.044C147.172 50.044 136.394 48.218 135.689 47.805C134.984 47.392 129.736 38.745 129.736 38.745L127.566 27.21Z" fill="#E6E6E6"/>
<path d="M125.441 27.2863C128.065 26.6303 129.225 28.0953 130.099 29.7163C134.073 37.0053 135.688 80.7423 135.688 80.7423C135.688 80.7423 126.823 84.2793 120.245 80.1283L125.441 27.2863Z" fill="#F0F0F0"/>
<path d="M133.894 102.462L132.235 108.776C131.694 109.089 131.082 109.254 130.457 109.257C129.833 109.26 129.218 109.1 128.674 108.793C128.321 108.605 128.022 108.329 127.807 107.991C127.592 107.654 127.468 107.267 127.446 106.867L127.522 105.916L127.709 98.5742L133.894 102.462Z" fill="#B16668"/>
<path d="M125.91 110.278C125.535 111.57 125.296 112.898 125.195 114.239C125.529 115.113 126.163 115.839 126.983 116.287L128.451 112.387L125.91 110.278Z" fill="#263238"/>
<path d="M126.982 116.3L130.797 115.776L132.248 112.739L127.829 114.051L126.982 116.3Z" fill="black"/>
<path d="M132.523 107.682L132.723 106.911C133.303 106.942 133.251 108.088 133.292 108.421C133.42 109.376 133.518 110.33 133.663 111.281C133.814 112.335 134.059 113.372 134.395 114.381C134.649 115.372 135.031 116.325 135.53 117.217C136.226 118 137.056 118.652 137.981 119.143C138.202 119.27 138.384 119.453 138.509 119.674C138.571 119.897 138.566 120.134 138.494 120.354C138.422 120.574 138.285 120.768 138.103 120.91C137.518 121.457 136.781 121.813 135.989 121.931C135.201 122.048 134.399 122.048 133.611 121.931C132.211 121.781 130.871 121.284 129.711 120.487C128.593 119.687 128.35 118.109 128.17 116.832C128.153 115.74 127.989 114.654 127.684 113.604C127.254 112.629 126.025 111.348 125.907 110.292C125.856 109.398 126.046 108.506 126.455 107.709C126.903 106.852 127.226 105.758 127.517 105.914L127.465 106.539C127.64 106.971 127.924 107.349 128.289 107.637C128.654 107.926 129.088 108.114 129.548 108.184C130.395 108.397 131.988 108.39 132.523 107.682Z" fill="#263238"/>
<path d="M129.804 114.52C129.853 115.686 129.804 116.169 129.804 116.696C129.894 117.569 130.069 118.43 130.328 119.268C130.423 119.653 130.557 120.028 130.728 120.386C130.908 120.803 131.245 121.365 131.047 121.774C130.948 121.962 130.812 122.129 130.647 122.263C129.926 122.881 128.995 123.198 128.047 123.148C127.547 123.143 127.058 123.003 126.631 122.742C125.899 122.094 125.344 121.271 125.017 120.35C124.528 119.437 124.817 118.962 124.732 117.958C124.634 116.632 124.462 115.311 124.215 114.004C126.022 111.938 127.541 113.944 129.804 114.52Z" fill="#B16668"/>
<path d="M132.578 56.8223C135.289 66.2703 139.867 82.3283 138.583 87.3223C137.611 91.0673 133.376 104.744 133.376 104.744C131.741 104.973 128.398 105.338 127.097 102.474C126.767 97.8263 125.622 66.2663 125.622 66.2663L132.578 56.8223Z" fill="#D27644"/>
<path opacity="0.4" d="M132.578 56.8223C135.289 66.2703 139.867 82.3283 138.583 87.3223C137.611 91.0673 133.376 104.744 133.376 104.744C131.741 104.973 128.398 105.338 127.097 102.474C126.767 97.8263 125.622 66.2663 125.622 66.2663L132.578 56.8223Z" fill="white"/>
<path opacity="0.25" d="M125.632 66.2531C127.353 64.6271 128.953 62.8778 130.419 61.019C130.419 61.019 130.072 63.258 126.986 66.344C126.986 66.344 132.158 86.265 132.127 89.444C132.096 92.623 130.391 104.023 130.391 104.023L125.632 66.2531Z" fill="black"/>
<path d="M132.575 56.8232C130.364 61.4082 129.496 63.2412 125.633 66.2722C125.633 66.2722 130.357 85.9052 130.566 89.7162C130.913 96.0512 130.097 110.231 129.806 114.538C129.074 115.496 125.506 115.659 124.381 114.843C123.084 109.805 122.066 104.7 121.333 99.5492C121.002 96.2097 121.09 92.8417 121.597 89.5242C119.097 83.1412 113.475 73.8242 111.42 67.1492C111.083 65.9938 110.87 64.8058 110.785 63.6052C110.327 59.3742 112.059 56.1422 113.076 53.8862L132.576 56.8232" fill="#D27644"/>
<g opacity="0.5">
<path d="M132.575 56.8232C130.364 61.4082 129.496 63.2412 125.633 66.2722C125.633 66.2722 130.357 85.9052 130.566 89.7162C130.913 96.0512 130.097 110.231 129.806 114.538C129.074 115.496 125.506 115.659 124.381 114.843C123.084 109.805 122.066 104.7 121.333 99.5492C121.002 96.2097 121.09 92.8417 121.597 89.5242C119.097 83.1412 113.475 73.8242 111.42 67.1492C111.083 65.9938 110.87 64.8058 110.785 63.6052C110.327 59.3742 112.059 56.1422 113.076 53.8862L132.576 56.8232" fill="white"/>
</g>
<path d="M123.83 121.16C123.683 122.494 123.675 123.84 123.806 125.176C124.28 125.978 125.025 126.585 125.906 126.887L126.687 122.798L123.83 121.16Z" fill="#263238"/>
<path d="M125.91 126.887L129.576 125.717L130.482 122.485L126.362 124.526L125.91 126.887Z" fill="black"/>
<path d="M129.791 117.464L129.819 116.697C130.312 116.944 131.371 120.946 132.819 123.697C134.145 126.21 136.804 127.626 137.661 128.723C138.806 130.191 136.536 132.048 132.923 131.243C131.132 130.843 128.41 129.667 127.695 128.449C126.98 127.231 126.737 125.002 126.143 124.106C125.549 123.21 124.123 122.173 123.828 121.156C123.598 120.235 123.609 119.271 123.859 118.356C124.151 117.436 124.137 116.492 124.598 116.416L124.667 117.138C124.907 117.638 125.844 118.204 127.667 118.322C128.544 118.377 129.388 118.262 129.791 117.464Z" fill="#37474F"/>
<path d="M123.396 19.3822L121.574 25.5392C116.506 25.5392 113.374 20.6032 113.374 15.5392C113.374 10.4502 116.616 6.19824 121.705 6.19824H123.357C128.446 6.19824 132.573 9.57524 132.573 14.6682C132.574 17.9842 128.464 19.3822 123.396 19.3822Z" fill="#263238"/>
<path d="M133.526 9.96221C133.915 9.32701 134.103 8.589 134.064 7.84521C134.04 7.47295 133.931 7.11107 133.747 6.78693C133.562 6.46279 133.306 6.18488 132.998 5.97421C132.5 5.71394 131.935 5.61074 131.377 5.67823C130.82 5.74571 130.296 5.98071 129.874 6.35221C129.803 5.69002 129.477 5.08145 128.965 4.6552C128.454 4.22895 127.796 4.01845 127.132 4.06821C126.296 4.21061 125.503 4.53792 124.81 5.02621C123.569 5.65419 122.229 6.06512 120.849 6.24121L122.401 6.84121C122.19 7.16591 122.056 7.53449 122.009 7.91887C121.962 8.30324 122.004 8.69326 122.13 9.05921C122.197 9.2093 122.278 9.35234 122.373 9.48621C123.403 11.0268 124.826 12.2646 126.494 13.0718C128.162 13.879 130.016 14.2265 131.863 14.0782C132.381 14.0669 132.888 13.9234 133.335 13.6612C133.596 13.4757 133.817 13.2397 133.984 12.9672C134.308 12.4934 134.468 11.9265 134.439 11.3532C134.419 11.0625 134.324 10.782 134.164 10.5384C134.005 10.2948 133.785 10.0964 133.526 9.96221Z" fill="#263238"/>
<path d="M119.44 28.0122L116.118 28.3592C113.918 28.8972 112.918 29.8692 112.692 31.8302C112.284 33.9381 112.323 36.1084 112.807 38.2002C113.501 40.9492 115.369 47.6802 115.369 47.6802C115.369 47.6802 112.957 53.7302 111.825 56.8232C119.663 61.9362 129.337 59.9162 132.586 56.8232C132.312 53.9002 131.277 51.1752 131.045 48.5692C131.045 48.5692 131.212 44.4942 131.534 42.7272C132.527 41.8027 133.173 40.5651 133.362 39.2216C133.552 37.8781 133.274 36.5103 132.575 35.3472C130.52 31.4912 127.42 28.1062 126.421 28.1102L119.44 28.0122Z" fill="#455A64"/>
<path d="M125.396 25.8213C125.836 25.8849 126.256 26.0416 126.63 26.281C127.004 26.5204 127.323 26.8369 127.565 27.2093C127.965 27.9523 131.109 32.8983 131.109 32.8983C131.109 32.8983 128.575 29.5623 126.666 28.5523C126.276 28.3257 125.844 28.1824 125.396 28.1313V25.8213Z" fill="#E0E0E0"/>
<path d="M119.439 28.011C119.439 28.011 122.91 35.248 123.528 40.132C124.146 45.016 122.834 61.678 122.834 66.964C122.834 73.337 122.855 83.855 122.855 83.855C120.605 83.8482 118.364 83.5872 116.173 83.077C113.974 82.5547 111.971 81.4141 110.4 79.79C110.4 79.79 110.011 66.745 110.83 60.532C111.604 54.632 114.745 47.362 114.745 47.362L110.72 32.017C110.79 31.256 111.079 30.5318 111.553 29.9323C112.027 29.3328 112.665 28.8838 113.389 28.64C115.371 28.1787 117.404 27.9673 119.439 28.011Z" fill="#FAFAFA"/>
<path d="M116.173 31.1714L112.063 37.1874L114.731 47.3574C113.215 50.6515 112.078 54.1069 111.34 57.6574C113.815 50.6574 116.05 48.5574 116.05 48.5574L114.599 42.6354C114.599 42.6354 115.109 40.7714 115.821 37.5914C116.386 35.4994 116.506 33.3125 116.173 31.1714Z" fill="#EBEBEB"/>
<path d="M118.42 36.8421C118.42 36.5421 118.392 35.8871 118.34 35.0611C118.083 31.0311 117.965 27.3861 119.326 27.0771L119.447 27.6321C118.447 27.8471 118.781 33.0501 118.906 35.0081C118.962 35.8511 119.006 36.5142 118.989 36.8482L118.42 36.8421Z" fill="#D27644"/>
<path d="M119.439 25.8213C119.186 25.8228 118.938 25.8935 118.722 26.0257C118.506 26.1578 118.331 26.3465 118.214 26.5713C117.888 27.1263 117.2 28.0603 117.2 28.0603C117.163 29.6219 117.279 31.1834 117.547 32.7223C117.866 33.5553 121.789 36.6413 121.789 36.6413C121.789 36.6413 121.407 39.9073 121.376 41.0493C121.345 42.1913 123.358 46.3323 123.604 48.5493C123.822 45.9248 123.852 43.2881 123.694 40.6593C123.121 36.3033 120.403 29.7873 119.438 28.0033L119.439 25.8213Z" fill="#EBEBEB"/>
<path d="M117.596 50.3211H117.547V49.9211C118.019 49.8817 118.47 49.7136 118.852 49.4351C118.444 49.1635 118.079 48.8326 117.769 48.4531C117.127 47.6231 115.725 41.7051 116.158 40.3271C116.505 39.1711 117.658 36.6201 118.668 36.5781H118.692C119.702 36.5781 121.028 38.9871 121.486 40.0981C122.034 41.4381 121.139 47.4531 120.57 48.3321C120.293 48.7386 119.956 49.1004 119.57 49.4051C119.973 49.6538 120.437 49.7837 120.91 49.7801L120.959 50.1721C120.343 50.1836 119.738 50.0094 119.223 49.6721C118.753 50.037 118.189 50.2619 117.596 50.3211ZM118.71 36.9741C118.116 36.9981 117.051 38.8901 116.565 40.4451C116.165 41.7121 117.516 47.4391 118.11 48.2101C118.426 48.5914 118.799 48.9204 119.217 49.1851C119.62 48.8856 119.971 48.5233 120.258 48.1121C120.786 47.2961 121.646 41.4751 121.136 40.2461C120.523 38.7721 119.307 36.9741 118.71 36.9741Z" fill="#455A64"/>
<path d="M121.543 49.9492C121.548 50.0643 121.518 50.1783 121.458 50.2767C121.398 50.375 121.31 50.4533 121.205 50.5017C121.101 50.5501 120.984 50.5665 120.87 50.5486C120.756 50.5308 120.65 50.4796 120.566 50.4015C120.481 50.3234 120.421 50.2219 120.394 50.1099C120.367 49.9979 120.373 49.8804 120.413 49.7721C120.453 49.6639 120.524 49.5698 120.617 49.5018C120.71 49.4339 120.821 49.395 120.936 49.3902C121.013 49.3869 121.089 49.3988 121.161 49.4252C121.233 49.4516 121.299 49.4919 121.355 49.5438C121.412 49.5957 121.457 49.6582 121.49 49.7278C121.522 49.7974 121.54 49.8726 121.543 49.9492Z" fill="#263238"/>
<path d="M118.141 50.0954C118.147 50.2301 118.105 50.3626 118.024 50.4704C117.943 50.5781 117.827 50.6544 117.696 50.6862C117.565 50.718 117.427 50.7034 117.306 50.6448C117.184 50.5863 117.087 50.4874 117.03 50.3651C116.973 50.2428 116.96 50.1045 116.994 49.9739C117.028 49.8434 117.106 49.7285 117.215 49.6489C117.323 49.5693 117.457 49.53 117.591 49.5375C117.726 49.5451 117.854 49.5991 117.953 49.6904C118.01 49.7422 118.055 49.8047 118.087 49.8741C118.12 49.9436 118.138 50.0188 118.141 50.0954Z" fill="#263238"/>
<path d="M121.598 42.7083L121.251 42.6843C121.234 42.6835 121.217 42.6791 121.202 42.6716C121.187 42.664 121.173 42.6534 121.162 42.6404C121.151 42.6273 121.143 42.6122 121.138 42.5958C121.133 42.5795 121.131 42.5623 121.133 42.5453C121.227 41.793 121.193 41.0303 121.033 40.2893C120.443 38.8523 119.228 37.0543 118.697 37.0753C118.166 37.0963 117.104 38.9953 116.639 40.4753C116.542 41.227 116.573 41.9897 116.729 42.7313C116.734 42.7653 116.725 42.7999 116.705 42.8277C116.685 42.8555 116.655 42.8744 116.621 42.8803L116.274 42.9323C116.257 42.9347 116.239 42.9336 116.222 42.9291C116.205 42.9246 116.189 42.9167 116.175 42.906C116.161 42.8953 116.15 42.882 116.141 42.8667C116.133 42.8515 116.127 42.8347 116.125 42.8173C115.945 41.9877 115.921 41.1316 116.056 40.2933C116.306 39.5023 117.476 36.5273 118.656 36.4753C119.836 36.4233 121.256 39.2903 121.572 40.0613C121.779 40.8845 121.829 41.7396 121.718 42.5813C121.717 42.6135 121.704 42.6441 121.682 42.6675C121.66 42.6909 121.63 42.7054 121.598 42.7083Z" fill="#D27644"/>
<path d="M107.917 72.9631C108.555 73.6981 109.079 74.5242 109.472 75.4141C110.093 76.5391 113.158 76.6461 113.401 73.4841C113.585 71.1031 112.752 70.2971 111.082 68.4441C109.329 66.4931 108.652 66.1741 108.732 64.3651C108.777 63.4731 110.12 50.5651 110.12 50.5651L114.539 38.3921C114.539 38.3921 116.139 32.7031 115.334 28.7391C114.442 28.6993 113.551 28.8368 112.712 29.1437C111.873 29.4506 111.103 29.9208 110.447 30.5271C108.083 32.8871 105.407 44.5571 104.817 46.9141C103.967 49.9008 103.596 53.0033 103.717 56.1061C103.856 59.8931 103.87 67.8061 104.373 69.5531C104.876 71.3001 106.287 71.4391 107.917 72.9631Z" fill="#B16668"/>
<path d="M115.531 28.2104C115.531 28.2104 112.487 28.0194 110.706 29.4774C108.925 30.9354 107.818 35.0104 106.506 39.0774C105.278 42.6342 104.308 46.2746 103.601 49.9704C103.254 52.3584 103.948 64.9704 103.948 64.9704C105.56 65.3863 107.269 65.1717 108.728 64.3704L110.428 50.5794L115.528 36.7364C116.469 33.9732 116.466 30.976 115.521 28.2144L115.531 28.2104Z" fill="#F0F0F0"/>
<path d="M127.392 10.8501C129.711 11.0901 131.648 13.5501 131.519 19.1501C131.408 23.8921 129.87 25.0501 129.089 25.3981C127.888 25.7594 126.615 25.8106 125.389 25.5471V28.1331C125.389 28.1331 127.055 31.8051 126.347 33.1181C123.718 31.9157 121.368 30.1788 119.447 28.0181V22.1521C119.112 22.4945 118.659 22.6957 118.181 22.7143C117.702 22.7329 117.235 22.5675 116.875 22.2521C116.183 21.7203 115.722 20.9436 115.587 20.082C115.451 19.2204 115.651 18.3396 116.146 17.6211C117.076 16.6771 119.076 16.9791 119.446 18.2811C119.446 18.2811 120.834 18.2461 123.393 16.4241C125.337 15.0916 126.753 13.119 127.392 10.8501Z" fill="#B16668"/>
<path d="M125.081 17.3281C125.089 17.4133 125.079 17.4992 125.053 17.5806C125.026 17.662 124.984 17.7374 124.928 17.8021C124.872 17.8668 124.804 17.9196 124.727 17.9574C124.65 17.9952 124.567 18.0172 124.481 18.0221C124.351 18.033 124.221 18.0049 124.107 17.9415C123.993 17.8781 123.901 17.7821 123.842 17.6659C123.783 17.5497 123.76 17.4186 123.775 17.2892C123.791 17.1598 123.845 17.038 123.93 16.9394C124.016 16.8408 124.128 16.7698 124.254 16.7355C124.38 16.7012 124.513 16.7052 124.636 16.7469C124.76 16.7886 124.868 16.8662 124.947 16.9697C125.027 17.0732 125.073 17.198 125.081 17.3281Z" fill="#263238"/>
<path d="M125.747 21.7642L127.628 22.3642C127.594 22.4899 127.535 22.6076 127.455 22.7101C127.375 22.8126 127.274 22.8978 127.16 22.9607C127.046 23.0235 126.921 23.0627 126.791 23.0758C126.661 23.089 126.53 23.0758 126.406 23.0372C126.154 22.9498 125.945 22.769 125.823 22.5322C125.7 22.2953 125.673 22.0204 125.747 21.7642Z" fill="#9A4A4D"/>
<path d="M130.675 15.8633L129.398 14.9783C129.452 14.8923 129.522 14.8181 129.606 14.7603C129.689 14.7026 129.783 14.6624 129.883 14.6423C129.982 14.6222 130.085 14.6225 130.184 14.6433C130.283 14.6641 130.377 14.705 130.46 14.7633C130.631 14.8834 130.749 15.065 130.789 15.27C130.829 15.4751 130.788 15.6877 130.675 15.8633Z" fill="#263238"/>
<path d="M130.221 17.2064C130.222 17.3303 130.187 17.4519 130.12 17.556C130.052 17.66 129.956 17.742 129.842 17.7917C129.729 17.8413 129.603 17.8565 129.481 17.8353C129.359 17.8142 129.246 17.7575 129.156 17.6725C129.065 17.5875 129.002 17.4778 128.974 17.3572C128.945 17.2365 128.953 17.1102 128.996 16.9939C129.039 16.8776 129.115 16.7765 129.215 16.7032C129.315 16.6298 129.434 16.5875 129.558 16.5814C129.643 16.5786 129.727 16.5926 129.806 16.6225C129.885 16.6525 129.958 16.6978 130.02 16.7559C130.081 16.814 130.131 16.8837 130.165 16.961C130.2 17.0383 130.219 17.1217 130.221 17.2064Z" fill="#263238"/>
<path d="M127.017 16.8452L127.117 20.6452L129.117 20.0272L127.017 16.8452Z" fill="#9A4A4D"/>
<path d="M125.396 25.5443C123.869 25.3443 120.734 24.1873 120.245 22.9443C120.441 23.5723 120.825 24.125 121.345 24.5273C122.613 25.2755 123.975 25.85 125.396 26.2353V25.5443Z" fill="#9A4A4D"/>
<path d="M150.892 40.6753L135.799 47.8573L131.648 65.8173L131.985 66.1743L146.331 58.9573L151.231 41.0323L150.892 40.6753Z" fill="#D27644"/>
<path opacity="0.35" d="M136.138 48.217L131.983 66.173L131.646 65.816L135.797 47.856L136.138 48.217Z" fill="black"/>
<path opacity="0.25" d="M151.228 41.0322L136.139 48.2222L131.984 66.1782L146.33 58.9612L151.228 41.0322Z" fill="black"/>
<g opacity="0.2">
<path d="M144.106 55.3063C144.482 55.703 144.949 56.0012 145.467 56.1743C145.985 56.3475 146.538 56.3904 147.077 56.2993L147.358 55.2583L144.106 55.3063Z" fill="black"/>
</g>
<g opacity="0.1">
<path d="M146.682 44.712L146.807 44.1121C146.876 43.7651 145.991 43.952 144.828 44.501L142.606 45.542C141.731 45.8621 140.96 46.4154 140.377 47.1421L140.252 47.742L146.682 44.712Z" fill="black"/>
</g>
<path d="M147.593 41.8963C147.638 41.6883 147.277 41.7123 146.793 41.9523L145.915 42.3823C145.915 42.3823 146.175 41.0823 144.221 41.9313C143.681 42.1343 143.191 42.4488 142.781 42.8542C142.371 43.2597 142.052 43.747 141.843 44.2843L140.902 44.7533C140.478 44.9242 140.115 45.2194 139.861 45.6003L139.75 45.9823L147.522 42.2823C147.522 42.2823 147.556 42.1043 147.593 41.8963Z" fill="#37474F"/>
<path d="M146.771 43.1421C146.059 43.4651 145.761 43.6241 145.657 44.1421C145.535 44.7251 145.487 45.1491 145.487 45.1491L142.044 46.7871C142.044 46.7871 142.211 46.0441 142.263 45.7461C142.315 45.4481 142.201 45.3161 141.652 45.5791L141.437 44.9791L146.991 42.3901L146.771 43.1421Z" fill="#37474F"/>
<path d="M146.883 44.7221C146.883 44.7221 146.938 44.4511 147.008 44.1221C147.078 43.7931 146.192 43.9621 145.029 44.5111L142.804 45.5521C141.931 45.873 141.161 46.4262 140.579 47.1521L140.454 47.7521L146.883 44.7221Z" fill="#37474F"/>
<path d="M149.548 47.1763C149.548 47.1763 149.013 49.1483 148.875 49.6443C148.737 50.1403 146.265 51.2823 145.025 51.4393C142.658 51.7393 142.39 52.2483 142.96 53.9283C143.484 55.4763 145.025 56.0634 147.16 55.8094C147.831 55.6792 148.455 55.3741 148.969 54.9248C149.484 54.4756 149.871 53.8982 150.09 53.2514C150.784 51.2724 150.409 49.1514 150.684 47.9994C150.959 46.8474 150.152 46.4893 149.548 47.1763Z" fill="#B16668"/>
<path d="M13.5762 26.8638L14.2762 27.2698L31.8972 17.1028L31.1972 16.6968L13.5762 26.8638Z" fill="#455A64"/>
<path d="M31.1903 16.6932L14.2803 26.4572V11.7982L31.1903 2.03418V16.6932Z" fill="#D27644"/>
<g opacity="0.8">
<path d="M31.1903 16.6932L14.2803 26.4572V11.7982L31.1903 2.03418V16.6932Z" fill="white"/>
</g>
<path d="M32.6023 0.405762L13.5903 11.3888V28.4888L32.6153 17.5048L32.6023 0.405762ZM31.9083 17.0988L14.2843 27.2688V11.7978L31.8973 1.63576L31.9083 17.0988Z" fill="#37474F"/>
<path d="M31.8973 17.098L31.1973 16.692V2.03402L31.8973 1.62402V17.098Z" fill="#263238"/>
<path d="M32.6011 0.406002L31.9011 0L12.8711 10.983L13.5711 11.389L32.6011 0.406002Z" fill="#455A64"/>
<path d="M12.8711 10.9829L13.5711 11.3889V28.4889L12.8711 28.0829V10.9829Z" fill="#263238"/>
<path d="M27.873 14.2281C28.533 13.8461 29.064 14.1551 29.064 14.9221C29.0418 15.3348 28.9223 15.7363 28.7153 16.094C28.5083 16.4516 28.2197 16.7553 27.873 16.9801C27.217 17.3581 26.686 17.0531 26.686 16.2861C26.7084 15.874 26.8275 15.4729 27.0337 15.1153C27.2399 14.7578 27.5275 14.4539 27.873 14.2281Z" fill="#D27644"/>
<path opacity="0.2" d="M18.2611 11.1278L27.2171 5.95585C27.4671 5.80985 27.6681 5.92785 27.6681 6.21285V6.24085C27.6599 6.39739 27.6147 6.54976 27.5363 6.6855C27.4579 6.82125 27.3485 6.93651 27.2171 7.02185L18.2611 12.2009C18.0151 12.3469 17.8101 12.2288 17.8101 11.9408V11.9138C17.8188 11.7568 17.8642 11.6039 17.9425 11.4674C18.0208 11.331 18.1299 11.2147 18.2611 11.1278Z" fill="black"/>
<g opacity="0.2">
<path d="M16.8449 15.2038L28.6449 8.40385C28.8949 8.25785 29.0959 8.32385 29.0959 8.54985C29.0776 8.68824 29.0273 8.82045 28.949 8.93604C28.8707 9.05163 28.7666 9.14742 28.6449 9.21585L16.8449 16.0259C16.5989 16.1719 16.3969 16.1059 16.4009 15.8769C16.4185 15.7382 16.4676 15.6054 16.5446 15.4887C16.6216 15.372 16.7243 15.2745 16.8449 15.2038Z" fill="black"/>
<path d="M16.8449 16.8321L28.6449 10.0251C28.8949 9.88312 29.0959 9.94911 29.0959 10.1711C29.0777 10.3101 29.0275 10.4429 28.9492 10.5592C28.871 10.6754 28.7668 10.7719 28.6449 10.8411L16.8449 17.6511C16.5989 17.7931 16.3969 17.7271 16.4009 17.5021C16.4184 17.3638 16.4676 17.2314 16.5446 17.1152C16.6216 16.999 16.7244 16.9021 16.8449 16.8321Z" fill="black"/>
<path d="M16.8449 18.457L28.6449 11.65C28.8949 11.508 29.0959 11.574 29.0959 11.799C29.0776 11.9374 29.0273 12.0696 28.949 12.1852C28.8707 12.3008 28.7666 12.3965 28.6449 12.465L16.8449 19.275C16.5989 19.421 16.3969 19.351 16.4009 19.126C16.4191 18.988 16.4685 18.856 16.5454 18.7401C16.6224 18.6241 16.7248 18.5273 16.8449 18.457Z" fill="black"/>
</g>
<path opacity="0.3" d="M25.7593 17.7069C25.6666 17.7558 25.5641 17.7832 25.4593 17.7868C25.2063 17.7868 25.2303 17.5298 25.2373 17.3528C25.2373 17.2728 25.1293 17.1528 25.0743 17.2528C24.9213 17.5268 24.7273 17.7838 24.5603 18.0528C24.4603 18.2158 24.2683 18.5878 24.0253 18.5348C23.9253 18.5138 23.8933 18.4068 23.8933 18.2708C24.0159 18.0459 24.0701 17.7901 24.0493 17.5348C24.0493 17.4588 23.9103 17.3648 23.8723 17.4688C23.7844 17.6905 23.7327 17.9248 23.7193 18.1628C23.6066 18.361 23.4789 18.5502 23.3373 18.7288C23.2543 18.8368 23.1843 18.9578 23.0943 19.0758C23.0703 19.0998 23.0283 19.1628 22.9943 19.1658C22.9603 19.1688 22.9213 19.1308 22.9113 19.0758C22.9069 18.9941 22.9198 18.9123 22.9493 18.8358V18.8148C22.9493 18.7348 22.8493 18.6148 22.8033 18.7148C22.6477 19.1397 22.4121 19.5307 22.1093 19.8668L22.0643 19.9048V19.7628C22.0598 19.6545 22.0409 19.5473 22.0083 19.4438C21.9873 19.3918 21.8973 19.3118 21.8483 19.3818C21.6329 19.774 21.3696 20.1378 21.0643 20.4648C21.013 20.5072 20.9585 20.5457 20.9013 20.5798C20.8453 20.5518 20.9293 20.2638 20.9433 20.2328C20.9743 20.1048 21.0163 19.9798 21.0583 19.8548C21.1016 19.7548 21.1332 19.6501 21.1523 19.5428C21.1523 19.4428 21.0033 19.2968 20.9723 19.4278C20.9427 19.5454 20.9067 19.6612 20.8643 19.7748C20.6628 20.1474 20.4342 20.5047 20.1803 20.8438C19.9524 21.2111 19.6361 21.5154 19.2603 21.7288C19.1603 21.7848 18.9603 21.8678 18.8433 21.7848C18.7263 21.7018 18.7433 21.5588 18.7353 21.4378C18.7307 21.1618 18.7681 20.8866 18.8463 20.6218C19.2163 20.4261 19.5595 20.1835 19.8673 19.8998C20.1693 19.6583 20.4306 19.37 20.6413 19.0458C20.7413 18.8548 20.8083 18.5458 20.5543 18.4388C20.3773 18.3628 20.1543 18.4878 20.0023 18.5708C19.7974 18.6923 19.6114 18.8433 19.4503 19.0188C19.124 19.3898 18.8866 19.8303 18.7563 20.3068C18.7353 20.3798 18.7043 20.4768 18.6763 20.5848C18.276 20.7903 17.8219 20.8668 17.3763 20.8039C17.3523 20.8039 17.3413 20.8558 17.3763 20.8598C17.802 20.9513 18.2455 20.909 18.6463 20.7388C18.5313 21.2318 18.4693 21.8838 18.9273 22.0128C19.3853 22.1418 19.9413 21.5648 20.1873 21.2318C20.3761 20.9828 20.5412 20.7167 20.6803 20.4368C20.6931 20.4164 20.7072 20.3967 20.7223 20.3778C20.7223 20.6068 20.7673 20.7778 20.9933 20.7248C21.2193 20.6718 21.4233 20.3778 21.5483 20.1938C21.6733 20.0098 21.7743 19.8468 21.8953 19.6838C21.9163 19.8918 21.9513 20.1248 22.1483 20.0838C22.3453 20.0428 22.4953 19.7018 22.5993 19.5628C22.6841 19.447 22.7584 19.3239 22.8213 19.1948C22.8351 19.2176 22.8502 19.2397 22.8663 19.2608C23.0293 19.4348 23.2133 19.2608 23.3313 19.1078C23.4803 18.9138 23.6473 18.7078 23.7893 18.4828C23.823 18.5783 23.8926 18.6569 23.9833 18.7018C24.2363 18.8198 24.4723 18.6118 24.6183 18.4278C24.7954 18.1859 24.9533 17.9305 25.0903 17.6638C25.1007 17.7143 25.1216 17.7619 25.1515 17.8038C25.1815 17.8457 25.2199 17.8808 25.2643 17.9068C25.3577 17.954 25.4621 17.9754 25.5665 17.9687C25.6709 17.962 25.7717 17.9276 25.8583 17.8688C25.9153 17.8348 25.8423 17.6649 25.7593 17.7069ZM20.2433 18.6929C20.3583 18.6339 20.5903 18.5328 20.6143 18.7308C20.5983 18.8603 20.5424 18.9816 20.4543 19.0778C20.2536 19.3483 20.0205 19.5931 19.7603 19.8068C19.4953 20.0512 19.2084 20.2708 18.9033 20.4628C18.9928 20.0913 19.158 19.7423 19.3886 19.4376C19.6191 19.1328 19.9101 18.879 20.2433 18.6918V18.6929Z" fill="black"/>
<path d="M41.3452 26.8638L42.0452 27.2698L59.6662 17.1028L58.9662 16.6968L41.3452 26.8638Z" fill="#455A64"/>
<path d="M58.9593 16.6932L42.0493 26.4572V11.7982L58.9593 2.03418V16.6932Z" fill="#D27644"/>
<g opacity="0.8">
<path d="M58.9593 16.6932L42.0493 26.4572V11.7982L58.9593 2.03418V16.6932Z" fill="white"/>
</g>
<path d="M60.3714 0.405762L41.3594 11.3888V28.4888L60.3844 17.5028L60.3714 0.405762ZM59.6774 17.0988L42.0534 27.2688V11.7978L59.6664 1.63576L59.6774 17.0988Z" fill="#37474F"/>
<path d="M59.6663 17.098L58.9663 16.692V2.03402L59.6663 1.62402V17.098Z" fill="#263238"/>
<path d="M60.3701 0.406002L59.6702 0L40.6401 10.983L41.3401 11.389L60.3701 0.406002Z" fill="#455A64"/>
<path d="M40.6401 10.9829L41.3401 11.3889V28.4889L40.6401 28.0829V10.9829Z" fill="#263238"/>
<path d="M55.6461 14.2281C56.3021 13.8461 56.8331 14.1551 56.8331 14.9221C56.8107 15.3343 56.6916 15.7354 56.4854 16.0929C56.2792 16.4505 55.9917 16.7544 55.6461 16.9801C54.9861 17.3581 54.4551 17.0531 54.4551 16.2861C54.4773 15.8735 54.5968 15.472 54.8038 15.1143C55.0108 14.7566 55.2994 14.453 55.6461 14.2281Z" fill="#D27644"/>
<path opacity="0.2" d="M46.031 11.1278L54.99 5.95585C55.236 5.80985 55.438 5.92785 55.438 6.21285V6.24085C55.4296 6.39699 55.3847 6.54899 55.3069 6.68462C55.2291 6.82026 55.1205 6.93576 54.99 7.02185L46.031 12.2009C45.785 12.3469 45.583 12.2288 45.583 11.9408V11.9138C45.5919 11.7578 45.637 11.606 45.7148 11.4704C45.7925 11.3349 45.9008 11.2193 46.031 11.1329V11.1278Z" fill="black"/>
<g opacity="0.2">
<path d="M44.614 15.2038L56.414 8.40385C56.664 8.25785 56.865 8.32385 56.865 8.54985C56.8466 8.68824 56.7963 8.82045 56.718 8.93604C56.6397 9.05163 56.5356 9.14742 56.414 9.21585L44.614 16.0259C44.368 16.1719 44.166 16.1059 44.17 15.8769C44.1875 15.7382 44.2367 15.6054 44.3137 15.4887C44.3906 15.372 44.4934 15.2745 44.614 15.2038Z" fill="black"/>
<path d="M44.614 16.8321L56.414 10.0251C56.664 9.88312 56.865 9.94911 56.865 10.1711C56.8467 10.3101 56.7965 10.4429 56.7183 10.5592C56.64 10.6754 56.5358 10.7719 56.414 10.8411L44.614 17.6511C44.368 17.7931 44.166 17.7271 44.17 17.5021C44.1875 17.3638 44.2366 17.2314 44.3136 17.1152C44.3906 16.999 44.4934 16.9021 44.614 16.8321Z" fill="black"/>
<path d="M44.614 18.457L56.414 11.65C56.664 11.508 56.865 11.574 56.865 11.799C56.8466 11.9374 56.7963 12.0696 56.718 12.1852C56.6397 12.3008 56.5356 12.3965 56.414 12.465L44.614 19.275C44.368 19.421 44.166 19.351 44.17 19.126C44.1881 18.988 44.2375 18.856 44.3145 18.7401C44.3914 18.6241 44.4939 18.5273 44.614 18.457Z" fill="black"/>
</g>
<path opacity="0.3" d="M53.5281 17.7069C53.4358 17.7566 53.333 17.784 53.2281 17.7868C52.9781 17.7868 52.9991 17.5298 53.0061 17.3528C53.0061 17.2728 52.8981 17.1528 52.8431 17.2528C52.6901 17.5268 52.4961 17.7838 52.3291 18.0528C52.2291 18.2158 52.0371 18.5878 51.7981 18.5348C51.6981 18.5138 51.6631 18.4068 51.6631 18.2708C51.7857 18.0459 51.8399 17.7901 51.8191 17.5348C51.8191 17.4588 51.6841 17.3648 51.6421 17.4688C51.5542 17.6905 51.5025 17.9248 51.4891 18.1628C51.3764 18.361 51.2487 18.5502 51.1071 18.7288C51.0271 18.8368 50.9541 18.9578 50.8641 19.0758C50.8431 19.0998 50.7981 19.1628 50.7641 19.1658C50.7301 19.1688 50.6911 19.1308 50.6811 19.0758C50.6767 18.9941 50.6896 18.9123 50.7191 18.8358C50.7207 18.8289 50.7207 18.8218 50.7191 18.8148C50.7191 18.7348 50.6191 18.6148 50.5731 18.7148C50.4175 19.1397 50.1819 19.5307 49.8791 19.8668L49.8341 19.9048V19.7628C49.8296 19.6545 49.8107 19.5473 49.7781 19.4438C49.7571 19.3918 49.6671 19.3118 49.6181 19.3818C49.4039 19.7747 49.1405 20.1387 48.8341 20.4648C48.7834 20.508 48.7288 20.5465 48.6711 20.5798C48.6191 20.5518 48.7021 20.2638 48.7131 20.2328C48.7441 20.1048 48.7861 19.9798 48.8281 19.8548C48.8714 19.7548 48.9029 19.6501 48.9221 19.5428C48.9221 19.4428 48.7731 19.2968 48.7411 19.4278C48.7115 19.5454 48.6755 19.6613 48.6331 19.7748C48.4328 20.1482 48.2041 20.5056 47.9491 20.8438C47.7212 21.2111 47.4049 21.5154 47.0291 21.7288C46.9291 21.7848 46.7291 21.8678 46.6121 21.7848C46.4951 21.7018 46.5121 21.5588 46.5041 21.4378C46.503 21.162 46.5403 20.8874 46.6151 20.6218C46.9851 20.4261 47.3283 20.1835 47.6361 19.8998C47.9389 19.6593 48.2004 19.3708 48.4101 19.0458C48.5101 18.8548 48.5771 18.5458 48.3231 18.4388C48.1461 18.3628 47.9231 18.4878 47.7711 18.5708C47.5635 18.6872 47.3742 18.8334 47.2091 19.0048C46.8827 19.3758 46.6454 19.8163 46.5151 20.2928C46.4941 20.3658 46.4631 20.4628 46.4351 20.5708C46.0348 20.7763 45.5807 20.8528 45.1351 20.7899C45.1111 20.7899 45.1001 20.8419 45.1351 20.8458C45.5608 20.9373 46.0043 20.895 46.4051 20.7248C46.2901 21.2178 46.2281 21.8698 46.6861 21.9988C47.1441 22.1279 47.7001 21.5508 47.9461 21.2178C48.1349 20.9688 48.3 20.7027 48.4391 20.4228C48.4519 20.4024 48.466 20.3827 48.4811 20.3638C48.4811 20.5928 48.5261 20.7638 48.7521 20.7108C48.9781 20.6578 49.1821 20.3638 49.3111 20.1798C49.4401 19.9958 49.5331 19.8328 49.6581 19.6698C49.6791 19.8778 49.7171 20.1108 49.9111 20.0698C50.1051 20.0288 50.2581 19.6878 50.3621 19.5488C50.4469 19.433 50.5212 19.3099 50.5841 19.1808C50.5979 19.2036 50.6129 19.2257 50.6291 19.2468C50.7921 19.4208 50.9761 19.2468 51.0941 19.0938C51.2431 18.8998 51.4101 18.6938 51.5521 18.4688C51.5858 18.5643 51.6554 18.6429 51.7461 18.6878C51.9991 18.8058 52.2351 18.5978 52.3811 18.4138C52.5582 18.1719 52.7161 17.9165 52.8531 17.6498C52.8635 17.7003 52.8844 17.7479 52.9143 17.7898C52.9443 17.8317 52.9827 17.8668 53.0271 17.8928C53.1205 17.94 53.2248 17.9614 53.3293 17.9547C53.4337 17.948 53.5345 17.9136 53.6211 17.8548C53.6841 17.8348 53.6121 17.6649 53.5281 17.7069ZM48.0121 18.6929C48.1301 18.6339 48.3591 18.5328 48.3831 18.7308C48.3669 18.8595 48.3126 18.9804 48.2271 19.0778C48.0253 19.3473 47.7923 19.592 47.5331 19.8068C47.2681 20.0512 46.9812 20.2708 46.6761 20.4628C46.7652 20.0916 46.93 19.7427 47.16 19.438C47.3901 19.1333 47.6805 18.8793 48.0131 18.6918L48.0121 18.6929Z" fill="black"/>
</svg>
